<svg xmlns="http://www.w3.org/2000/svg" viewBox="0 0 714.25 535.6"><defs><style>.cls-1{fill:#f9faf9;}.cls-2{fill:#3fb2be;}.cls-3{fill:#535555;}.cls-4{fill:#43b4c0;}.cls-5{fill:#3cb2bf;}.cls-6{fill:#b4b5b5;}.cls-7{fill:#ddd;}.cls-8{fill:#dee0e0;}.cls-9{fill:#d3d3d3;}.cls-10{fill:#edecec;}.cls-11{fill:#6f6f6f;}.cls-12{fill:#dae0e0;}.cls-13{fill:#fbfbf9;}</style></defs><title>Asset 1</title><g id="Layer_2" data-name="Layer 2"><g id="Layer_1-2" data-name="Layer 1"><path class="cls-1" d="M10.35,443.2c-3.6-.39-6.79,1.33-10.19,2L0,443.18l10.19-2Z"/><path class="cls-2" d="M10.35,443.2l-.16-2c.77-4.57-.54-9.37,1.39-13.82,4.34-10,11.52-17.26,22.26-19.78,19-4.47,38-9.05,57.13-12.91,16.54-3.33,33.06-6.93,49.72-9.57,12.24-1.94,24.61-3.58,36.82-5.51,19-3,38.18-4.37,57.17-7.25.82-.12,1.65-.13,2.48-.19,14-.94,12,1.27,12.81-13.95a42.77,42.77,0,0,0-.5-6l.05-2.06c.68-3.42.95-7.1,3.29-9.82,3-3.52,2.42-6.23-.21-9.82-19.63-26.94-28.72-58.12-35.43-90.15a607.34,607.34,0,0,1-11-82.39c-1.05-15.09-2.22-30.15-2.3-45.27,0-10.63,3.5-15,13.82-17.52,15.79-3.91,31.53-8,47.34-11.87,3.24-.79,4.66-2.23,5.25-5.53,1.76-9.84,4.91-19.33,8.26-28.72,2.7-7.59,8.1-13.2,14.42-18.06C309.4,18.38,327.42,8.53,347.33,2.57a58.26,58.26,0,0,1,41.43,2.76c18.23,8.1,34.45,19.17,49.51,32.2,10.65,9.2,15.33,21,17,34.41,1.56,12.28,1.47,12.23,13.52,15.22,11.76,2.92,23.51,5.88,35.21,9,8,2.14,11.51,6.17,11.19,14.24-.83,20.75-.7,41.56-3.6,62.19-.49,3.46,0,5.67,3.87,7.2,14.74,5.87,19.78,18.23,20.79,32.87.21,3,.72,5.07,3.52,7A24.44,24.44,0,0,1,548.92,230a12.08,12.08,0,0,0,4.85,5.5c4.35,2.75,8.54,5.76,12.87,8.55,9.59,6.22,12.84,13.05,10.06,24.17A80.47,80.47,0,0,0,574.61,292a19.31,19.31,0,0,1-6.88,16.39c-5.32,4.62-9.22,10.49-13.84,15.72-9.59,10.86-19.19,13.18-32.37,6.81a6.89,6.89,0,0,0-7.14,0c-10.76,5.44-22.05,8.43-34.12,4.44-3.68-1.21-7.23.35-10.77.21-.82,1.3.19,2,.71,2.75,4.77,6.76,5.27,14.18,3.42,21.95-.54,2.25-1.22,4.47-1.9,6.69-.8,2.6-.23,4.26,2.8,4.32,14.47.26,28.64,3.62,43.12,4,5.59.16,11.15,1.38,16.73,2.12l2.91.73c6.56,3.2,13.78,1.27,20.61,2.66,14.09,2.86,28.45,4.15,42.46,7.74,5.66,1.45,11.86,1.15,17.64,2.69,12,3.2,24.69,3.73,36.41,7.55,11.26,3.66,23.05,4.43,34.21,8.22,14.9,5.05,24.65,18,24.83,33.66.07,6.15.61,12.29.77,18.44.09,3.65.18,7.35-1.88,10.66a4.12,4.12,0,0,0-.4,3.32c3,12.65,1.61,25.52,1.12,38.25-.4,10.51-14.29,22-25.22,22.9-10,.81-19.58-1.23-29-4.05-12.08-3.64-24.53-5.4-36.79-8.14-25.55-5.69-51.42-9.71-77.27-13.84-26.88-4.3-53.93-7.2-81-9.43-35.81-2.95-71.7-4.44-107.67-4.08-12.62.12-25.23.23-37.82,1-3.34-.27-6.69-.61-10,.21l-2.08.15-43.93,2.92a3.55,3.55,0,0,0-3.05.12l-37.94,3.66c-2-.12-4.08-.69-6,.53-3.94.56-7.86,1.29-11.82,1.63-19,1.63-37.56,5.53-56.29,8.65-23.37,3.88-46.41,9.48-69.7,13.6-9.38,1.66-18.09,5-27.26,6.9-7.89,1.62-15.83,2.72-23.58-.52-12.5-5.22-18.25-16.7-15.94-32.08a50,50,0,0,0-1-20.23c0-2.33,0-4.66,0-7A82.31,82.31,0,0,0,10.35,443.2ZM682,527.31c12.63,1.16,23.59-9.06,24-17.93.59-11.56,1.82-23.29-1.15-34.79-.59-2.3-1-4.56.3-6.77,2-3.29,2.2-6.94,2-10.63-.23-5.49-.71-11-.79-16.44-.16-12.39-8.67-23.17-20.56-27-11.23-3.66-23-4.51-34.31-8.13-12.25-3.92-25.44-4.51-37.93-8-5-1.4-10.47-.48-15.26-2-12.47-3.89-25.52-4.33-38.12-7.28-7.32-1.72-15.17-.16-22.27-2.14-7.46-2.09-15-2.92-22.53-3.85-16.15-2-32.39-3.29-48.6-4.77-2.48-.23-3.34-.86-3.1-3.67a86.81,86.81,0,0,1,2.88-15.67c2.41-8.74-.66-16.48-7.71-20.87-1.36-.84-4.24-.92-3.26-3.49.86-2.27,2.36-5.34,4.81-5.29,6.32.12,13-2.35,18.75-.68,13.31,3.84,25,1.25,36.1-5.94,2.49-1.61,4.14-1.52,6.52.47,8.54,7.15,18.22,6.09,25.68-1.93,5.43-5.85,9.64-12.73,15.86-17.9a11.79,11.79,0,0,0,4.11-9.83c-.32-9-.1-17.88,2.32-26.7,1.9-6.94-.32-11.43-6.26-15.36-3.48-2.29-7-4.55-10.45-6.84-4.73-3.12-9.15-6.34-11.56-11.95a14.51,14.51,0,0,0-9.58-8.23c-2.78-.77-3.14-1.78-3-4.82.69-16.61-3.65-30.17-21.79-34.11-3.3-.72-3.67-2.09-3.32-5.16,2.58-22.51,3.56-45.13,4.29-67.76.16-5-1.7-7.72-6.63-8.91-11.16-2.7-22.25-5.69-33.37-8.57-5.78-1.5-13.27-1.18-16.76-5.24-3.12-3.65-2.26-10.73-3.12-16.3-1.78-11.62-5.53-22.14-14.9-30.13a205.94,205.94,0,0,0-41.71-28.11C378.45,8,364.77,4.85,350.15,9.27c-19.34,5.85-36.74,15.41-52.92,27.42a36.92,36.92,0,0,0-13.64,19.73C281,64.87,278.2,73.24,276.66,82c-.77,4.36-2.63,7.06-7.42,7.85-5.4.88-10.67,2.59-16,3.93-11.3,2.84-22.61,5.63-33.9,8.53-7.26,1.87-8.18,3.15-8.17,10.75,0,7.16.43,14.31.71,21.46A641.65,641.65,0,0,0,224.2,239c7.07,34.18,17.41,67.07,39.71,94.9,1.72,2.14,1.16,3.31-.71,4.89-3.69,3.12-6.19,7.09-6.33,12-.2,7.63-.31,15.28-.09,22.91.08,2.74-.41,4-3.3,4.19-5.47.34-11,.67-16.38,1.44-19.06,2.69-38.25,4.17-57.31,7.19-11.89,1.89-24,3.4-35.93,5.26-19.34,3-38.47,7.28-57.7,11-8.48,1.63-16.79,4.05-25.18,6-8.73,2-17.58,3.65-26.21,6.07-12.06,3.38-19.33,14.57-17.13,26.29a77.9,77.9,0,0,1-.16,30.69,25,25,0,0,0,.24,12.36c1.79,5.93,1.53,11.77.27,17.74-1.9,9-.38,17,7.47,22.73,6.64,4.86,14,4.16,21.59,2.84,6.63-1.16,12.35-5.32,18.84-6,6-.62,11.78-1.7,17.64-2.89,29-5.88,57.81-12.2,87.09-16.27,6.24-.87,12.58-3.6,18.41-3.57,12.77.08,25.08-2.8,37.63-3.86,21.84-1.85,43.66-4.21,65.54-5.34,20-1,39.95-2.78,60-1.65,7.12.41,14.28.07,21.42,0,37.81-.15,75.44,2.58,113.08,6,22.2,2,44.25,5,66.24,8.29,23.3,3.49,46.6,7.25,69.59,12.63,13.56,3.18,27.41,4.94,40.79,9.07C669.28,525.74,675.46,527.51,682,527.31Z"/><path class="cls-1" d="M249.52,350.21l-.05,2.06C248.65,351.56,248.58,350.87,249.52,350.21Z"/><path class="cls-1" d="M9.76,474.21c0,2.33,0,4.66,0,7Q6.55,477.71,9.76,474.21Z"/><path class="cls-1" d="M215.33,503.25c1.9-1.22,4-.65,6-.53C219.5,504.9,217.44,504.39,215.33,503.25Z"/><path class="cls-1" d="M259.25,499.06a3.55,3.55,0,0,1,3.05-.12C261.33,500.25,260.31,500.11,259.25,499.06Z"/><path class="cls-1" d="M306.23,496l2.08-.15C307.69,496.88,307,496.87,306.23,496Z"/><path class="cls-3" d="M682,527.31c-6.57.2-12.75-1.57-18.71-3.41-13.38-4.13-27.23-5.89-40.79-9.07-23-5.38-46.29-9.14-69.59-12.63-22-3.3-44-6.27-66.24-8.29-37.64-3.42-75.27-6.15-113.08-6-7.14,0-14.3.37-21.42,0-20.05-1.13-40,.62-60,1.65-21.88,1.13-43.7,3.49-65.54,5.34-12.55,1.06-24.86,3.94-37.63,3.86-5.83,0-12.17,2.7-18.41,3.57-29.28,4.07-58.14,10.39-87.09,16.27-5.86,1.19-11.66,2.27-17.64,2.89-6.49.68-12.21,4.84-18.84,6-7.58,1.32-14.95,2-21.59-2.84-7.85-5.76-9.37-13.77-7.47-22.73,1.26-6,1.52-11.81-.27-17.74a25,25,0,0,1-.24-12.36,77.9,77.9,0,0,0,.16-30.69c-2.2-11.72,5.07-22.91,17.13-26.29,8.63-2.42,17.48-4.09,26.21-6.07,8.39-1.9,16.7-4.32,25.18-6,19.23-3.7,38.36-8,57.7-11,11.94-1.86,24-3.37,35.93-5.26,19.06-3,38.25-4.5,57.31-7.19,5.42-.77,10.91-1.1,16.38-1.44,2.89-.18,3.38-1.45,3.3-4.19-.22-7.63-.11-15.28.09-22.91.14-4.95,2.64-8.92,6.33-12,1.87-1.58,2.43-2.75.71-4.89-22.3-27.83-32.64-60.72-39.71-94.9a641.65,641.65,0,0,1-12.32-104.51c-.28-7.15-.7-14.3-.71-21.46,0-7.6.91-8.88,8.17-10.75,11.29-2.9,22.6-5.69,33.9-8.53,5.33-1.34,10.6-3,16-3.93,4.79-.79,6.65-3.49,7.42-7.85,1.54-8.71,4.38-17.08,6.93-25.53a36.92,36.92,0,0,1,13.64-19.73c16.18-12,33.58-21.57,52.92-27.42,14.62-4.42,28.3-1.31,41.53,5.29a205.94,205.94,0,0,1,41.71,28.11c9.37,8,13.12,18.51,14.9,30.13.86,5.57,0,12.65,3.12,16.3,3.49,4.06,11,3.74,16.76,5.24,11.12,2.88,22.21,5.87,33.37,8.57,4.93,1.19,6.79,3.93,6.63,8.91-.73,22.63-1.71,45.25-4.29,67.76-.35,3.07,0,4.44,3.32,5.16,18.14,3.94,22.48,17.5,21.79,34.11-.13,3,.23,4.05,3,4.82a14.51,14.51,0,0,1,9.58,8.23c2.41,5.61,6.83,8.83,11.56,11.95,3.47,2.29,7,4.55,10.45,6.84,5.94,3.93,8.16,8.42,6.26,15.36-2.42,8.82-2.64,17.71-2.32,26.7a11.79,11.79,0,0,1-4.11,9.83c-6.22,5.17-10.43,12.05-15.86,17.9-7.46,8-17.14,9.08-25.68,1.93-2.38-2-4-2.08-6.52-.47-11.14,7.19-22.79,9.78-36.1,5.94-5.78-1.67-12.43.8-18.75.68-2.45-.05-3.95,3-4.81,5.29-1,2.57,1.9,2.65,3.26,3.49,7.05,4.39,10.12,12.13,7.71,20.87a86.81,86.81,0,0,0-2.88,15.67c-.24,2.81.62,3.44,3.1,3.67,16.21,1.48,32.45,2.75,48.6,4.77,7.52.93,15.07,1.76,22.53,3.85,7.1,2,15,.42,22.27,2.14,12.6,2.95,25.65,3.39,38.12,7.28,4.79,1.5,10.26.58,15.26,2,12.49,3.5,25.68,4.09,37.93,8,11.3,3.62,23.08,4.47,34.31,8.13,11.89,3.87,20.4,14.65,20.56,27,.08,5.48.56,10.95.79,16.44.16,3.69,0,7.34-2,10.63-1.35,2.21-.89,4.47-.3,6.77,3,11.5,1.74,23.23,1.15,34.79C705.62,518.25,694.66,528.47,682,527.31Zm-384-300.56c-.55-.94-1.11-1.88-1.67-2.82-1.75-9-.35-17.92.06-26.87,1.28-28.49,8.39-55.28,24.49-79.16,9.91-14.69,20.65-28.72,35.85-38.5,5.57-3.59,11.55-6,19.49-5.31-7.62,3.37-4.14,6.28-1,9.55A51.68,51.68,0,0,1,381,91.2c8.05,12.28,13.7,26,21.63,38.27,19,29.48,23.19,61.53,17.8,95.44a30.17,30.17,0,0,1-6.89,15.3c-1.2,1.4-2.42,3.09-4.65,2.75-.67-2.69,2.05-4.52.84-7.24-1.51.93-2.94,1.74-4.3,2.65a204.1,204.1,0,0,1-32,17.43,25.39,25.39,0,0,1-15.1,1.93l-25.05-4.5c-.22-.11-.24-.88-.71-.22l.78.14c9.07,8,19.55,12.17,31.76,11.88,6.16-.15,12.48.38,18.11-2.59a74.4,74.4,0,0,1,13.4-5.37c7-2.13,14.07-4.16,20.9-6.76,11-4.2,18.89-15.79,18.94-27.6,0-4.48-.47-9-.74-13.46-.29-5-1-10,.19-16.27,3.07,7.2,2.61,13.87,4.72,20a3.93,3.93,0,0,0,.8-.73,5.48,5.48,0,0,0,.56-1.38c2.38-9,2.48-17.38-.8-26.73-6.44-18.35-11.9-37-18.78-55.27-.52-1.38-1.49-3-.48-4.68,1.62.52,1.7,2,2.17,3.2,5.88,14.16,11.33,28.47,15.24,43.33.75,2.82.89,6.23,4.81,8.28.75-8.37,1.69-16.1,2.11-23.86,1.61-30.38-4.65-60-9.27-89.73-.86-5.54-3.92-10.22-8.17-14C413.68,37.87,397.13,26.51,378,19.32c-6.92-2.6-13.9-3.75-21.46-1.67-19.25,5.29-36.47,14.42-52.46,26.13-4.06,3-7.85,6.18-9.64,11.16a244.56,244.56,0,0,0-13.07,56.31c-2.1,19.11-4.93,38.08-12.29,55.91-5.37,13-3.71,26.21-3.87,40.55,12.83-25.14,18.33-51,20-78.82,2.39,2.58,2,4.32,2,5.91A95,95,0,0,1,285,159.09c-4.18,17.64-7,35.7-16.81,51.5-.95,1.52-2,3.5-1.28,5.21,3.33,7.68,5,16.45,13.38,20.95,1,.54,1.95,1.8,3.1,1.19,1.7-.89.31-2.32.14-3.5-.14-1-.71-2.22.27-2.76,1.2-.67,2.21.37,3,1.25a65.84,65.84,0,0,1,5,6.21,98.09,98.09,0,0,0,15.33,17.71c11.83,11,23,22.69,38.77,28.45,11.33,4.14,11.19,4.54,16.19-6.49,1.14-.92,2.9-1.76,2.41-3.39-.41-1.37-2.26-1.15-3.54-1.16-4.38,0-7.72-2-11.19-4.6-13.13-9.83-26.44-19.41-39.16-29.78l-9.67-9.35A8.21,8.21,0,0,0,298.07,226.75Zm23.29-26.34c-1.15.18-1.06,1-.93,1.83l0,5.95a1.38,1.38,0,0,0-.22.84c-4.31-5.86-9.6-11.22-8.88-19.44a21,21,0,0,0-1.19-8.28,35.52,35.52,0,0,1-2.76-2.58c-1-1.11-1.87-2.74-3.51-2.1-1.24.49-1.12,2.26-1.38,3.53-2.29,11.35,2,20,10.9,26.83,1.17,1.53,2.07,3.32,3.93,4.2.44,2,2.16,3.24,3.13,4.92.58,2.2,2.16,3.7,3.66,5.26,2.43,4.58,6,8.37,8.87,12.61,3,4.43,7.19,6.61,12.48,7.24a137.47,137.47,0,0,0,34.81-.16c3.39-.46,6.66-1.41,8.86-4.08a196.5,196.5,0,0,0,17.19-23.75h0a8.66,8.66,0,0,0,4-5h0c3.42-3,7.54-5.52,7.76-10.73.19-4.6.13-9.21.08-13.82,0-1.21.52-3-1.19-3.35s-2.66,1.12-3.08,2.62a21.92,21.92,0,0,0-.47,3.36c1,9.29-3.67,16.31-9.1,23-1.36-1-1-2.12-.35-3.42.73-1.52,1.14-3.78,0-4.64-2.15-1.6-1.89-3.31-1.38-5.28.73-2.84-1.93-2.64-3.22-3.67-.47-1.05-.27-3.14-2.3-2.14-2.63,1.29-3.09,8.93-.83,11.06-1.09,1.38-1.07,3.94-3.79,3.6l-2-.17c0-.53-.09-1.05-.14-1.57,2.71-1.93,1.76-4.42,1.06-6.87l.13-1.55c3.33-.73,1.73-4.13,3.2-5.88.23-.85.45-1.7.68-2.55.56-1.11.87-2.92,2.6-1.07,1.48,1.58,2.89,3.23,4.74,5.31,1.52-4.75,6.82-6.32,7.21-11.3.1-1.91-1.31-2.8-2.47-4-1.3-1.32.61-.7.85-1.13a11.91,11.91,0,0,1,5.66,1.56c1,.56,2.2.9,2.79-.75,1.23-3.49-2.6-8.56-6.46-8.53a2.14,2.14,0,0,0-1-.14c2.42-1.25,5.73-1.66,3.52-6-1.78-3.49-3.54-1.83-5.56-.79-7.79,1.48-15.06,1.56-21.64-4.32-4.8-4.29-8.15-10.44-15-12.32-1.21-.33-1.52-2-1.87-3.46l4.46-.2,1.4,1.06c3.78,2.14,5.46-1.07,7.64-3,3.77-2.9,7.49-5.86,10.22-9.84,2.55-1.5,2.07-3.4.75-5.46q-5.51-8.59-11-17.21l-2.81-.42c.94-1.93.11-3.51-1-5.06a92.38,92.38,0,0,0-9.5-11.5c-3.57-3.64-7.53-3.86-11.83-1.93a20.82,20.82,0,0,0-5.48,3.38c-9.51,8.68-16.28,19.65-24.36,29.53-1.1,1.33-1.35,2.68.49,3.69,4.66,7,11.19,12.19,17.49,17.59a3.65,3.65,0,0,0,4.61.27l1.6-1.09c.63,1.15,2.5-.87,2.82,1.09.94,2.72-1,3.4-2.92,3.91a7.29,7.29,0,0,0-4.44,2.81c-3.64,5.06-8.89,8.3-13.89,11.79-2.07,1.45-4.41,2.23-6.92.86,4.41-2.84,9.61-4.52,13.65-9.36-4.19.56-6.86,3.34-10.39,3.19-4.88-1.28-10.25-.52-14.68-3.65-3.92-2.77-5.26-1.1-5.07,3l-.31,1.32c-3.94,5.07-3.92,8,.06,11.11-1.9.74-4.84-.25-5,3.29-.12,2.28-.78,4.42,1.71,6.1,2.68,1.82,5,2.16,7.44-.21l6.55-2.23c-1.83,3.35-7.52,3.95-4.51,8.94,1.75,3.39,4.71,5.76,6.42,8,3.65.88,3.33-8.79,8.38-1.91.14,2.72-.56,5.76,2.78,7.26l.22,1.79c-1,2.9-1.46,5.63,2,7.29-2.82,2.38-5,.88-7.07-1.19a1.32,1.32,0,0,0-.79-.24c3.18-1.35,3.31-3.91,2.38-6.64-.69-2-.63-5.6-3.2-5.18s.75,3.29-.33,5c-1.42-.33-1.56-2.65-3.46-2.3C320.91,195.21,323.62,198.32,321.36,200.41Zm72.86-64.59-5.3,4c-2.16,1.61-.82,2.47.77,3,4.07,1.25,7.79.25,11.25-2.05,1.27-.86,1.47-1.9,1-3.4C400.45,132.21,399.22,131.93,394.22,135.82Zm11,21.23c1.25.25,2.23-.45,3.28-.91A2.16,2.16,0,0,0,409.8,153c-.63-1.54-1.63-1.75-3.17-1.45-7.07,1.38-14.19,3.14-21.11-1.28,1.21,3.56,4,4.8,6.7,6.1C396.27,161.55,400.87,157.05,405.21,157.05Zm109.14,82.19c6.55-.72,12.43,1.51,18.21,4.19,1,.46,2.1,1.37,3.16.31.33-.33.23-1.23.14-1.84-.81-5.53-4.59-9-10.49-9.66-7.07-.81-8.28,0-11.08,6.95l-.35.44ZM451.3,321.18c-2.61.5-5.44-2.51-7.88.45-2.63,3.19-5.22,6.41-7.82,9.61-1.31,1.61-1.26,2.36,1.11,2.79,7.8,1.42,14.23.09,18-7.78a19.1,19.1,0,0,1,2.36-3.16c1.85.16,2.5-1.76,3.88-2.37,1.3,1.51.48,4.38,3.34,4.91v-6.51c6.67.79,12.4-1.74,17.9-5.06l2,4.1c1.24,1.6,3,1.89,4.87,2.09,11.93,1.3,20.81-5.8,30.24-11.17,5-2.83,3.37-9.46,6.78-13.39.85-1,.35-2.25-.69-3.06-.84-.65-1.55-.13-2.17.46-7.49,7.16-15.47,5.14-23.83,1.12,2,8.15-2.43,13.38-7.9,18.13L487.59,310c.82-.82,1.67-1.62,2.47-2.46,6.9-7.18,6.69-11.21-.73-17.89-5.74-5.18-12.71-8.44-19.33-12.16-5.92-3.34-12.28-6.06-19.41-5.55-1.55.11-3.57-.44-4.2,1.73-.58,2,.16,3.45,2.06,4.52a7.8,7.8,0,0,1,3.89,6.59A22.38,22.38,0,0,1,435.93,308c-1.11.28-2.8-.26-3.24,2a24.09,24.09,0,0,0,8.66,3.18l9.88,3.42ZM551.39,280l2.68,1.44c.88,1,1.9,2.5,3.16,2.09,1.82-.6.88-2.59.93-3.95a33.58,33.58,0,0,1,1-8.39c3.22-10.7,1.58-13.17-9.6-14.87a22.27,22.27,0,0,1-3-.32c-3.34-1-4.33.26-4.5,3.6a18.44,18.44,0,0,1-3.37,9.81c-3,4.14-2.93,8.79-3,14.46C540.61,279.19,545.75,278.28,551.39,280Zm-11.88,35.42c6.7-5.55,10.29-13.93,17.42-19.11a3.47,3.47,0,0,0,1.13-3.63c-1.48-6.72-12.75-10.79-17.9-6.29a45.52,45.52,0,0,0-11.59,14.87c-1.89,4.08-3.92,8.67-.46,13.16C531.68,317.37,535.35,319.19,539.51,315.41Zm-17.16-30.17h0c4.56-4.46,7.44-10.1,10.7-15.45,8.24-13.5,5.48-20.51-9.61-24.94-6.43-1.89-7.86-1.25-11.25,4.57-5,8.64-7.28,18.49-12,27.3-2.25,4.2,2,13.11,6.27,15.13,2.24.41,4.38,1.42,6.74,1C518.06,292.51,520.73,289.51,522.35,285.24Zm-185.6,75c-1.28,5.92.28,11.9-.36,17.82-.19,1.77,0,2.89,2.18,2.9,2,0,3.14-.41,3-2.77-.17-2.68,0-5.38,0-8.08a16.66,16.66,0,0,1,2.71,7.91c.18,2.07.78,3,3,3,2-.06,3.54-.25,3.71-2.85s.39-5.57,2.61-8.75c0,3.33.12,5.81,0,8.28-.12,1.86-.15,3.2,2.34,3.32,2.72.13,2.81-1.25,2.78-3.39-.12-8.24-.06-16.48-.07-24.72,0-1.9.72-4.2-2.67-3.91-2.57.22-5.29-.66-5.54,3.67s-1.49,8.44-2.29,12.65l-.82,0-1.89-7.05a44.52,44.52,0,0,1-.61-5.38c0-4.26-2.86-3.85-5.75-3.92-3.94-.08-2.39,2.6-2.41,4.43C336.51,355.64,336.67,357.94,336.75,360.25ZM416.21,290c6.63,1.38,12.49-.85,17.94-4.21,5.27-3.25,8.07-9.1,6.86-13.34-1.29-4.55-11.36-13.06-15.5-13.1-10.82-.1-19.35,5.7-23.12,15.7-3.58,9.52,1.77,16.18,12,14.94Zm75.05-50.69c.72,1.12,1.48,2.16,3,2,7.44,2.43,12.14.87,16.21-5.58,2-3.09,3.46-6.48,5.56-9.45,5.2-7.36,4.44-15,1.53-22.81-2.26-6-10-10-17.32-9.1a14.27,14.27,0,0,0-11.87,11.77,110.67,110.67,0,0,0-1,24.4C487.66,233.81,488.14,237.15,491.26,239.27Zm10-130.89c-14.57-3.74-29.13-7.54-43.71-11.21-12.72-3.19-12.74-3.13-9.82,9.94,4.44,23.93,3.7,47.91.86,71.94-.79,6.64-.35,13.35.56,21.21,2.78-4.36,5-7.62,7-11,2.11-3.67,5.21-4.84,9.21-4.49,8,.7,14.78,3.52,19.32,10.52.18,1.85.25,3.74,2.74,1.47,2.68-2.46,5.23-5.12,8.81-6.35,1.36-.47,1.32-1.76,1.45-2.91.82-6.89,1.94-13.77,2.41-20.69,1.19-17.68,2.15-35.38,3-53.08C503.2,111.89,504.58,109.16,501.24,108.38Zm-264.37,103c3.38-.49,3.9-3.17,4.94-5.94-2.41-.16-3.91,1-5.58,1.58l-.84-4.76c6.58-2.78,13.12-5.63,19.75-8.3,2.5-1,3-2.79,2.9-5.14-.32-5.15,1.37-9.82,3.47-14.39,10.1-21.92,14.08-45.24,15.8-69.08,1.14-4.11,2.29-8.21,2.2-12.88L218.84,108c-1.11.29-2.37.42-2.26,2.07-.08,1.82-.3,3.65-.21,5.47.81,16.45,1.43,32.9,2.86,49.33,3.06,35.4,8.21,70.38,18.3,104.52,6.51,22.06,16,42.64,30.21,60.89,1.33,1.71,2.2,4.49,5.08,4.28,4.3-.32,8.67.34,12.91-.89,5.53,1.76,10.66,2.68,16.72.37s13.11-1.52,19.76-.41c7.25,1.21,13.91-.1,19.28-5.45,4.05-4,5.92-4.45,10.05-.43,2.62,2.56,3.86,1.81,5.76-.64,9.3-12,18.85-23.76,28.09-35.77,4.92-6.39,11.19-11.94,13.2-20.28.37-1.51,2-2.89-.14-4.32-1.84-1.23-3.62-2.53-5.88-.85-1.87,1.4-3.79,2.72-5.64,4.14-10.43,8-20.12,17.34-31.44,23.78a156.19,156.19,0,0,0-35.62,27c-1.25,1.28-2.34,3.26-4.79,3,1.62-5.63.08-7.7-5.3-5.34-7.74,3.4-16.46,1.68-23.88,5.75-.81.45-2,1.11-2.72.1-.87-1.28.29-2.14,1.25-2.8a291.42,291.42,0,0,1,37.48-21.85l.64.66c-.57,2.08-3,3.07-3.31,5.85,9-2.37,15.88-7.74,23-12.86,3.22-2.33,3.16-3.57-.56-5.16a82.49,82.49,0,0,1-25.23-16.72c-8.35-8.07-16.69-16.24-26.66-22.5-8.28-5.21-16.1-5.35-24.18.32a100.46,100.46,0,0,1-18.51,9.79,39.47,39.47,0,0,1-3.15-12.55c2.47-2,5-3.88,7.39-5.9,2.25-1.88,4.24-4.15,8.14-5.39-2.62,4.58-7,7.12-5.63,12.8,6.64-3.72,11.23-10.8,20.67-9.61-9.6-10.54-12.72-22.48-14.62-34.89a37.18,37.18,0,0,0-.82-3.91c-.29-1.07-1-1.77-2.19-1.47-1.44.37-3,.66-3.8,2.11a1.69,1.69,0,0,0,.8,2.52c5.47,2.45.44,3.27-.8,4-2.32,1.44-6.44.7-7.26,3.6-1.25,4.43-4.75,5.68-7.92,7.65Zm166.57,184.3c0-3.66-2.59-4.46-5.37-4.37-19.14.61-38.41-2.87-57.45,1.64a2.66,2.66,0,0,1-1.88-.36c-3.35-2.21-7.07-1.47-10.7-1.48-9.87,0-19.58,2-29.6,1.36-6.41-.42-13.13.51-19.7.95-2.75.19-5.76.29-7.69,2.9-.74,1-1.46,1.3-2.32.17-1.8-2.37-4.41-1.91-6.88-2-7.72-.25-15.09,2.45-22.88,2.42s-15.86,1.41-23.76,2.47c-10.26,1.37-21,.28-30.52,5.59a2.58,2.58,0,0,1-2.37,0c-3.76-1.47-7.55-.42-11.35-.18-9,.59-17.38,4.23-26.58,4.8-8.94.55-18,2.51-26.95,4.5-7,1.54-13.78,3.88-20.72,4.86-8.07,1.15-16,2.65-24,4.37-2.61.56-4.41,2.93-7.31,2.91-8.95-.06-17.29,3.16-25.81,5.26-4,1-6.14,3.78-4.46,8.37a14.21,14.21,0,0,1,.79,5.38c-.39,10.28,1.33,20.65-1.57,30.82a7.78,7.78,0,0,0,.18,3.94,54.06,54.06,0,0,1,.15,26.12c-.77,3.49.32,5.28,3.9,5a44.54,44.54,0,0,0,13.49-3.36c2.6-1.06,3.64-3.36,3.2-6.14-1.52-9.78-.42-19.62-.71-29.42,0-1.63-.18-3.65,2-4.11,3.5-.75,6.13-3,9.4-5.29-.07,3.36-2.14,5.83-1.57,8.69,1.77,8.79.69,17.56-.21,26.31-.59,5.68,1,7.37,6.67,6,6.29-1.52,12.53-3.11,18.92-4.25,10.77-1.92,21.46-4.33,32.2-6.41,8.15-1.58,16.29-3.19,24.5-4.32,3.17-.44,5.24-4,8-3.29,7.68,2,14.82-1.09,22.2-1.6,4-.28,8-2.72,8.29-6.85.75-9.74,1.79-19.63-1.11-29.24-1.13-3.74-5-5.6-6.82-9.06-1.72-3.25-1.34-4.21,2.27-4.7,6.85-.95,8-2.79,6.81-9.1-.31-1.63-2.17-4.06,1.76-4.17,2.67-.08,4.42.06,4.2,3.58-.44,6.94.77,14-1.71,20.79a5.08,5.08,0,0,0-.11,2.94c2.68,9.35,2.23,18.76.57,28.18-.52,3,.87,4.88,3.53,4.84,5.91-.08,12.07.25,17-4.09h.42l.41,0c3,2,6.41,1.47,9.71,1.23,11.91-.89,23.69-3,35.64-3.47,3.47-.13,7.12-.11,9.32-3.65.69-1.11,1.21-.58,1.78.17,1.89,2.56,4.64,2,7.3,2.1,7.3.22,14.42-2.16,21.75-1.4,4.68.48,9.54-2.75,13.37-1.83,7.25,1.76,14.24.56,21.31.73,6.11.15,9.81-4,9.94-10.14a149.4,149.4,0,0,0-.07-16c-.45-5.22-.93-10.59-5.37-14.55-1.55-1.38-2.36-3.59-3.51-5.41-1.55-2.47-.87-3.43,2-3.71,7.57-.75,7.84-1.27,7.11-8.41-.15-1.43-1.05-3.73,1.66-3.81,2.26-.07,4.18.51,4.06,3.65-.21,5.49,0,11-.11,16.49-.06,3-1.84,5.74-1,8.84,2.11,7.87,1.19,15.92.84,23.84-.34,7.68.39,9.08,8,9.25a12.89,12.89,0,0,0,4-.06c5.91-1.85,11.69-.54,17.63-.22,7.07.37,14.23.35,21.36.46,7.45.1,15,0,22.36.79,7.17.78,14.58-2.87,21.52,1.25.25.15.65.05,1,.07,10.6.71,21.33.61,31.76,2.34,11.41,1.89,23,.33,34.38,3.07,7.08,1.69,14.69,2.38,22.12,3.14,8.69.88,17.35,2.18,26,3.52,9.84,1.52,19.62,3.4,29.46,4.91,11,1.68,22,3.54,32.84,5.78,9.63,2,19.53,3.63,29,6.74,3.28,1.08,6.83-.79,9.74,1,6.76,4.15,14.58,4.44,21.93,6.35,3.65.95,7.86-.58,8-4.65.41-9.75,1.78-19.73-1.82-29.18-1.46-3.82-4.07-7.21-6.11-10.81-1.86-3.26-1.64-4.73,2.82-4.15,5.66.75,7-.85,5.86-6.52-.74-3.81-.37-7.63-.43-11.45-.1-7.59-2.72-11.16-10.11-13.28-5.76-1.66-12.61-5.43-17.28-3.33-7.61,3.44-9.62-4.1-14.78-4.69-5.76-.66-11.4-2.32-17.12-3.44-6-1.17-7.26.4-6.88,6.51a138.53,138.53,0,0,1-1.79,30.83c-.44-10.41-.71-20.82-.33-31.21.2-5.61-.51-7.56-5.85-9.1-1.59-.46-3.25-.72-4.88-1-11.18-2.12-11.18-2.12-14.6,8.36a11.46,11.46,0,0,1-.49-2.18c0-7.6-4.51-9.94-11.41-10.94-8.74-1.27-17.57-2-26.19-4.37-4.75-1.28-9.89-1.25-14.87-1.5-2.79-.14-4.84.87-4.26,4.48,1.26,7.94.3,15.87,0,23.84-.19,6-2.51,11.72-1.77,17.58a78.12,78.12,0,0,1,.2,15.23c-2.3-3-1.67-6.37-2-9.43-.75-6.92-3.35-14.2-1.12-20.74,2.65-7.75,2.43-15.35,2.45-23.12,0-4.9-3.2-9.69-7.83-10.17-8.82-.91-17.55-4.46-26.6-1.49a2.87,2.87,0,0,1-2.77-.72c-2.52-2-5.58-2-8.55-2.28-8.43-.85-16.85-2.38-25.27-2.34-9.68.05-19.4-3.93-29.05.12a1.58,1.58,0,0,1-1.38-.15c-4.71-4.08-10.58-2-15.86-3.06-5.55-1.09-10.2.47-13.74,5Zm77.79-190.88c.17-9.54-9.47-17.17-18-15a3.18,3.18,0,0,0-1.74.91c-6.48,8.85-11.63,18.25-11.2,29.68a6.38,6.38,0,0,0,1.74,3.48,27.8,27.8,0,0,0,10.42,7.56c5.5,2.26,13-.73,14.66-5.92C479.35,218.48,478.85,210.94,481.23,204.77Zm7.82,74.36c1.73-.59,4.9,1.44,5.78-1.65,1-3.6,3.22-6.54,4.59-9.91,2.75-6.73,2.24-8-5.25-8.32-5.74-.25-10.35-2-13.8-6.6-1.38-1.85-3-1.76-4.82-.81-3.6,1.88-5.81,5-5.15,8.89C472.32,272.26,476.14,279.76,489.05,279.13ZM311.57,381.41c2.78-.37,7.06,1.67,7-4.06q-.12-11.84,0-23.67c0-2.78-1.07-4-3.86-3.72a29.52,29.52,0,0,1-5,.13c-3.81-.3-4.91,1.54-4.69,5.08.4,6.73-.28,13.47-.15,20.22C305,380.49,306.35,382.55,311.57,381.41Zm95.21-23.49c0,5.16-.06,9.94,0,14.71.14,9.43.17,9.33,9.76,8.93,2.76-.12,3.86-1,3.83-3.81-.1-7.91-.05-15.83,0-23.74,0-1.78-.2-3.56-2.37-3.68-3.46-.21-7.37-1.11-10.27.17C405.32,351.55,407.3,355.62,406.78,357.92Zm41.74-130c-3.51,8.62,4.5,20.91,13.41,21,11.41.15,12.8-1,12.44-9.81-.13-3.17-1.11-3.62-3.92-2.56-3.75,1.42-7.39.75-11-1.06C455.45,233.48,452.13,230.54,448.52,227.89ZM279.39,367.09c0-2.83,0-5.66,0-8.48,0-1.24.09-2.34,1.74-2.41,1.9-.08,1.75,1.38,1.54,2.39-.86,4,1.92,3.34,3.74,2.56,2.89-1.23.95-4.08,1.3-6.18.28-1.68,0-3.56-2.34-3.63-3.15-.08-6.31.05-9.46.18-1.76.07-1.9,1.18-1.88,2.77.12,8.92.09,17.83.08,26.75,0,.94-.49,1.84.92,2.37,7.57,2.84,13.55-1.62,12.86-9.48-.19-2.08-1-2.45-2.78-2.49-3.44-.08-2.36,2.26-2.38,4.12,0,1.07.32,2.49-1.43,2.66-2.09.2-1.9-1.35-1.91-2.65C279.37,372.74,279.38,369.91,279.39,367.09Zm135.47-70.64c3,1.93,6,3.92,9.11,5.78,4.42,2.67,12.74,2.24,16.92-1.35,4.82-4.12,6.78-9.72,6.55-16a2.65,2.65,0,0,0-2-2.6c-1.46-.4-2,.79-2.7,1.72-3.52,5-8.57,7.76-14.21,9.61C424.26,295,419.78,295.24,414.86,296.45Zm53-25.29c-1.65-5.91-3.32-10.66-1.63-15.72.49-1.44-.39-2.17-1.9-2-8,1.05-13.13-3.61-17.72-9.11-1.85-2.21-3-2.65-4.64.2A37.54,37.54,0,0,0,437.1,257c-.59,3.29,5.75,11.16,9,10.65C453.42,266.48,460.28,267.93,467.9,271.16ZM383.18,381c1.17,0,2.33,0,3.49,0,1.95,0,3.7,0,3.57-2.77s-2.21-2.12-3.6-1.94c-4.11.54-5.82-.91-5.19-5.13a33.39,33.39,0,0,0,.05-5.48c0-1.65.6-2.72,2.35-2.1,2.16.77,2.69-.16,2.59-2.05-.08-1.59.43-3.6-2.52-2.67-2.21.69-2.38-.92-2.43-2.58-.15-4.57,3.23-2.78,5.28-2.73s3.7.9,3.46-2.19c-.29-3.74-3.38-2.44-4.9-2.16-3,.54-6.85-2.5-8.92,1.95-.06.13.06.33.06.49,0,8.86.07,17.73-.15,26.59-.06,2.44.92,2.85,2.88,2.77C380.52,380.91,381.85,381,383.18,381ZM482,229.18c-4.06,7.21-3.21,13,.65,19.06,4.34,6.87,11.2,6.41,17.63,7,3.18.29,3.39-3.21,3.75-5.58.48-3.14-2.09-2.29-3.71-2.37-10.78-.52-15.14-4.22-17.4-14.86C482.79,231.65,482.52,230.88,482,229.18ZM443.54,356c-.83-3.77-2.43-5.87-6.6-4.24,3.26,9.57,5,19.43,4,29.6-.23,2.37,1.33,1.75,2.52,1.89,2,.23,3.06-.21,3-2.63-.33-8.79.34-17.48,3.23-25.88.38-1.12,1-2.31-.54-2.92-1.22-.47-2.72-.84-3.7.32A19.25,19.25,0,0,0,443.54,356ZM330.82,143.34c1.85-.22,4.25.18,4.82-1.81.51-1.8-1.77-2.58-3-3.48-3.1-2.18-5.8-4.85-9.41-6.41-1.68-.73-2.86-2.29-4.52-.44s-1.26,3.69,0,5.47A15.1,15.1,0,0,0,330.82,143.34Z"/><path class="cls-4" d="M211.42,477.06c-4.95,4.34-11.11,4-17,4.09-2.66,0-4.05-1.86-3.53-4.84,1.66-9.42,2.11-18.83-.57-28.18a5.08,5.08,0,0,1,.11-2.94c2.48-6.79,1.27-13.85,1.71-20.79.22-3.52-1.53-3.66-4.2-3.58-3.93.11-2.07,2.54-1.76,4.17,1.22,6.31,0,8.15-6.81,9.1-3.61.49-4,1.45-2.27,4.7,1.82,3.46,5.69,5.32,6.82,9.06,2.9,9.61,1.86,19.5,1.11,29.24-.32,4.13-4.32,6.57-8.29,6.85-7.38.51-14.52,3.58-22.2,1.6-2.8-.72-4.87,2.85-8,3.29-8.21,1.13-16.35,2.74-24.5,4.32-10.74,2.08-21.43,4.49-32.2,6.41-6.39,1.14-12.63,2.73-18.92,4.25-5.65,1.37-7.26-.32-6.67-6,.9-8.75,2-17.52.21-26.31-.57-2.86,1.5-5.33,1.57-8.69-3.27,2.25-5.9,4.54-9.4,5.29-2.13.46-2,2.48-2,4.11.29,9.8-.81,19.64.71,29.42.44,2.78-.6,5.08-3.2,6.14a44.54,44.54,0,0,1-13.49,3.36c-3.58.27-4.67-1.52-3.9-5A54.06,54.06,0,0,0,34.59,480a7.78,7.78,0,0,1-.18-3.94c2.9-10.17,1.18-20.54,1.57-30.82a14.21,14.21,0,0,0-.79-5.38c-1.68-4.59.47-7.39,4.46-8.37,8.52-2.1,16.86-5.32,25.81-5.26,2.9,0,4.7-2.35,7.31-2.91,7.94-1.72,15.88-3.22,24-4.37,6.94-1,13.77-3.32,20.72-4.86,8.93-2,18-3.95,26.95-4.5,9.2-.57,17.56-4.21,26.58-4.8,3.8-.24,7.59-1.29,11.35.18a2.58,2.58,0,0,0,2.37,0c9.53-5.31,20.26-4.22,30.52-5.59,7.9-1.06,15.84-2.5,23.76-2.47s15.16-2.67,22.88-2.42c2.47.08,5.08-.38,6.88,2,.86,1.13,1.58.83,2.32-.17,1.93-2.61,4.94-2.71,7.69-2.9,6.57-.44,13.29-1.37,19.7-.95,10,.65,19.73-1.39,29.6-1.36,3.63,0,7.35-.73,10.7,1.48a2.66,2.66,0,0,0,1.88.36c19-4.51,38.31-1,57.45-1.64,2.78-.09,5.39.71,5.37,4.38-1,4.89-.14,9.74.41,14.62.53-4.53.17-9.14,1.48-13.57,3.54-4.52,8.19-6.08,13.74-5,5.28,1,11.15-1,15.86,3.06a1.58,1.58,0,0,0,1.38.15c9.65-4.05,19.37-.07,29.05-.12,8.42,0,16.84,1.49,25.27,2.34,3,.3,6,.27,8.55,2.28a2.87,2.87,0,0,0,2.77.72c9.05-3,17.78.58,26.6,1.49,4.63.48,7.85,5.27,7.83,10.17,0,7.77.2,15.37-2.45,23.12-2.23,6.54.37,13.82,1.12,20.74.33,3.06-.3,6.4,2,9.43a78.12,78.12,0,0,0-.2-15.23c-.74-5.86,1.58-11.62,1.77-17.58.26-8,1.22-15.9,0-23.84-.58-3.61,1.47-4.62,4.26-4.48,5,.25,10.12.22,14.87,1.5,8.62,2.32,17.45,3.1,26.19,4.37,6.9,1,11.36,3.34,11.41,10.94a11.46,11.46,0,0,0,.49,2.18c3.42-10.48,3.42-10.48,14.6-8.36,1.63.31,3.29.57,4.88,1,5.34,1.54,6.05,3.49,5.85,9.1-.38,10.39-.11,20.8.33,31.21a138.53,138.53,0,0,0,1.79-30.83c-.38-6.11.88-7.68,6.88-6.51,5.72,1.12,11.36,2.78,17.12,3.44,5.16.59,7.17,8.13,14.78,4.69,4.67-2.1,11.52,1.67,17.28,3.33,7.39,2.12,10,5.69,10.11,13.28.06,3.82-.31,7.64.43,11.45,1.09,5.67-.2,7.27-5.86,6.52-4.46-.58-4.68.89-2.82,4.15,2,3.6,4.65,7,6.11,10.81,3.6,9.45,2.23,19.43,1.82,29.18-.18,4.07-4.39,5.6-8,4.65-7.35-1.91-15.17-2.2-21.93-6.35-2.91-1.79-6.46.08-9.74-1-9.43-3.11-19.33-4.75-29-6.74-10.81-2.24-21.85-4.1-32.84-5.78-9.84-1.51-19.62-3.39-29.46-4.91-8.63-1.34-17.29-2.64-26-3.52-7.43-.76-15-1.45-22.12-3.14-11.43-2.74-23-1.18-34.38-3.07-10.43-1.73-21.16-1.63-31.76-2.34-.34,0-.74.08-1-.07-6.94-4.12-14.35-.47-21.52-1.25-7.4-.8-14.91-.69-22.36-.79-7.13-.11-14.29-.09-21.36-.46-5.94-.32-11.72-1.63-17.63.22a12.89,12.89,0,0,1-4,.06c-7.65-.17-8.38-1.57-8-9.25.35-7.92,1.27-16-.84-23.84-.83-3.1.95-5.87,1-8.84.1-5.49-.1-11,.11-16.49.12-3.14-1.8-3.72-4.06-3.65-2.71.08-1.81,2.38-1.66,3.81.73,7.14.46,7.66-7.11,8.41-2.91.28-3.59,1.24-2,3.71,1.15,1.82,2,4,3.51,5.41,4.44,4,4.92,9.33,5.37,14.55a149.4,149.4,0,0,1,.07,16c-.13,6.18-3.83,10.29-9.94,10.14-7.07-.17-14.06,1-21.31-.73-3.83-.92-8.69,2.31-13.37,1.83-7.33-.76-14.45,1.62-21.75,1.4-2.66-.08-5.41.46-7.3-2.1-.57-.75-1.09-1.28-1.78-.17-2.2,3.54-5.85,3.52-9.32,3.65-12,.44-23.73,2.58-35.64,3.47-3.3.24-6.67.76-9.71-1.23.47-5.4.89-10.81,1.41-16.21a53.81,53.81,0,0,0,.08-11.9c-.09-.76-.35-1.74-1.39-1.77s-1.33,1-1.44,1.72a30,30,0,0,0-.3,4.45C210.61,461.23,210.35,469.17,211.42,477.06ZM605.73,457.6l1.21.23c0,8.81.23,17.63-.08,26.43-.2,5.86.71,7.15,6.63,7.14,1.86,0,2.69-.33,2.42-2.5-1.51-12.15,1.15-24.3-.08-36.52-.81-8.07-.17-16.3-.15-24.46,0-8.75,0-8.56-8.74-10.29-3.67-.72-4.65.51-5.06,3.86-1.13,9.23-2.42,18.46-3.93,27.64-.54,3.28-.13,6.86-2.5,10.55-2-14.36-4-28-5.76-41.63-.34-2.66-1.3-3.8-3.92-4.07s-5.22-1-7.83-1.51c-1.66-.33-2.51.12-2.22,2.07,2.34,15.59-1.17,31.24.42,46.89a117.29,117.29,0,0,1-.24,20.43c-.41,5.45,4.84,3.05,7.42,4,2.75,1,1.77-1.8,1.77-3.27v-28.2c2.38,8.77,4.62,17.56,5,26.43.25,5.88,2.32,7.41,7.44,7.67,2.58.13,3.47.13,3.84-3C602.43,476.11,604.22,466.87,605.73,457.6ZM277.08,444c-2-.78-1.78-2.11-2.05-3.15-3-11.93-6-23.87-9.08-35.79-1.86-7.21-1.91-7.11-9.32-6.71-3.5.2-5.84.86-4.61,5.25a17.94,17.94,0,0,1,.32,5.95c-.66,10.08-.69,20.25-1,30.26-.28,9.71.78,19.74.61,29.68-.06,3.4,3.08,1.56,4.66,1.55,2,0,4.93.93,4.79-3.13-.26-7.48-.21-15-.25-22.47,0-6.72,0-13.44,0-20.17a9.89,9.89,0,0,1,2.26,4.58c3.1,12.25,6.17,24.52,9.3,36.77.39,1.53.59,3.77,2.88,3.32,3.5-.68,7.27.23,10.5-1.81.16-.1.11-.64.06-.95-2.09-11.78.73-23.59-.31-35.45-.89-10.24-.25-20.64,0-30.95.08-2.69,0-4.44-3.11-3.66-2.33.57-6.85-2.16-6.21,3.49,1,8.48.3,17,.47,25.45C277.17,432,277.08,437.85,277.08,444ZM516.26,456.8h-.18c0-5.17-.09-10.33.06-15.49,0-1.63-1-4.34,1.37-4.65,2.76-.35,2,2.54,2.17,4.13C521,452,522.44,463.2,523,474.49c.26,5,4.49,2.62,6.89,3.26,2.91.77,2.47-1.44,2.23-3.42q-2-16.83-3.86-33.68c-.29-2.64-.81-5.45.47-7.88,3.64-6.9,2.38-14.3,2.47-21.56,0-4-2.07-6.14-6-6.6-3.64-.42-7.26-1-10.9-1.34-7.15-.7-7.15-.66-7,6.57,0,1,.06,2,0,3-.64,10.08-.6,20.24-.82,30.28s.41,20.11.56,30.2c0,3.67,4.74,1.45,7.21,2.25,2.31.76,2-1.26,2-2.8C516.24,467.45,516.26,462.12,516.26,456.8ZM218,460.39c0,3.48.07,7,0,10.46-.05,1.84-1.38,4.52,2.28,3.71,2.66-.6,7,1.93,7-4.17,0-10.79.55-21.59.83-32.38,0-2.14.73-3.54,3.11-3.59s2.12,1.64,2.25,3.1c1,10.6,1.13,21.24,1.16,31.87,0,2.26-.38,4.47,2.62,3.63,2.37-.66,7.19,1.34,6.57-3.59-1.54-12.28.07-24.62-1.5-36.95a159.86,159.86,0,0,1-1.12-28.88c.1-1.73.38-3.51-2.29-3.25-5.29.52-10.58,1.07-15.88,1.56-2,.18-2.8.95-2.71,3.17a219.52,219.52,0,0,1-.59,24.86c-.36,5-2,10-1.59,14.62A98.4,98.4,0,0,1,218,460.39Zm280.06-36.9c0-5.87,0-10.86,0-15.85,0-3.09-.95-5.84-4.35-6.36-5.75-.88-11.55-1.41-17.33-2-2-.22-3.05.36-2.77,2.79,1.19,10.11.16,20.28.59,30.41.14,3.24-2.29,6-1.35,9.25,2.47,8.51,1.24,17.18.92,25.77-.09,2.68,0,4.12,2.91,4.4,5.46.53,10.9,1.19,16.36,1.68,2.74.24,4.67-1.18,4.87-3.89.72-9.23.6-18.53.92-27.76A132.2,132.2,0,0,0,498.08,423.49Zm143.51,54.88h.87c0,5.32,0,10.64,0,15.95,0,1.35-.49,2.86,1.26,3.28,2.55.61,5.38,2.31,7.66,1.11,1.81-1-.1-3.65,0-5.59.08-1.48-.19-3-.11-4.48.33-6.91.78-14.18,0-20.68-1.18-9.92-1-19.88-2.22-29.73-.5-3.91,1.8-8.85-.7-11.45-2.65-2.75-7.81-2.11-11.87-2.95-7.7-1.6-7.34-1.57-7.94,6.2-.83,10.89-1.16,21.8-2.22,32.69-.93,9.54-.3,19.47-.63,29.25-.13,4.08,4.57,2.58,7.13,3.25s2.21-1.58,2.26-3.18c.3-10.14.57-20.28,1-30.41.07-1.52-.87-4.1,2.13-4.13s3.43,2,3.41,4.43C641.56,467.41,641.59,472.89,641.59,478.37ZM93.25,440a34.58,34.58,0,0,0-.5-6c-.91-3.55,2.17-8.69-1.08-10.32-2.76-1.38-7.34.75-11.08,1.48-8,1.58-7.66,1.65-8.17,9.59-.73,11.24-1.25,22.51-2.24,33.75-.87,9.75,0,19.84-.73,29.78a1.44,1.44,0,0,0,.78,1.62c2.72,1.3,8.69-2.63,8.75-5.65q.31-15.72.82-31.44c.06-2.14,0-4.64,3.16-4.67s2.44,2.64,2.51,4.39c.4,10.14.66,20.28,1,30.42,0,1.22-.75,2.68,1.29,3.18a6.11,6.11,0,0,0,7.6-6.66,25.38,25.38,0,0,1-.17-4,205.27,205.27,0,0,0-.11-21.78C94.66,455.91,93.68,447.94,93.25,440Zm471.88-11.33c0-4.86-.12-10,0-15.17.07-2-.14-3.13-2.4-3.42-5.26-.67-10.51-1.51-15.76-2.29-1.79-.26-2.88.16-2.78,2.31.45,9.47-.45,18.92-.67,28.38-.08,3.75-2.45,7.32-1.76,10.59,1.82,8.7-.19,17.24.12,25.84.06,1.5-1.6,3.37.61,4.45,2.44,1.19,5.17,1.12,7.81,1.09.95,0,.88-1.21.82-2.05-.88-10.8.71-21.54.87-32.32,0-1.66-.56-3.95,2.38-4,2.57-.06,2.76,1.64,2.93,3.64.91,10.77,1.06,21.57,1.1,32.38,0,1.29-.75,3,.88,3.49,2.5.75,5.3,2.23,7.69,1.2s.07-3.55.3-5.43a47.71,47.71,0,0,0,0-5.48c0-6.75.37-13.71-.12-20.19C566.64,444.19,566.4,436.49,565.13,428.67ZM387.5,394.4H380c-2.06,0-2.95.85-2.78,3.06,1.18,15.55-2.31,30.92-1.71,46.47a144.46,144.46,0,0,1-1.05,19.92c-.36,3.66,1.85,3.56,3.94,3.18s5.84,2,5.58-2.49c-.64-11,.6-21.92,1.06-32.87.08-1.9,0-3.79,2.79-3.7,2.38.07,2.46,1.7,2.54,3.46.52,10.8,1.31,21.6.86,32.41-.22,5.2,3.67,3,6,3.46,2.61.51,3.75-.26,3.41-3.51-1.32-13-.36-26.12-1.63-39.15-.67-6.95-.4-14-1.3-20.91-.38-3,2.48-6.9-.82-8.64C394.32,393.75,390.66,394.55,387.5,394.4Zm29.91,37.53v-22c0-.16,0-.33,0-.5,0-2-.19-4.15,2.93-4.06,2.58.08,3.74.64,3.63,3.8-.17,4.86,4.09,2.26,6.34,2.88s3.09-.58,3-3.07c-.54-13-.67-13.24-13.72-13.64-.66,0-1.33,0-2,0-6.1,0-8.57,2.3-8.64,8.33-.1,7.66-.24,15.34.06,23,.16,3.76-2.18,7.3-1.34,10.74,2.19,8.94,1.24,17.87.78,26.8-.14,2.7.36,3.67,3,3.72,5.16.09,10.32.26,15.48.47,4,.17,6.1-1.63,5.78-5.63-.94-11.73,1.93-23.37.26-35.18-1.1-7.76-1.36-8.7-9.33-8.82-1.86,0-4.15-.38-3.91,2.38s-1.95,6.63,1.74,7.82c2.8.9,2.77,2.3,2.77,4.28,0,6.83,0,13.67,0,20.5,0,2.45.14,4.66-3.5,4.54s-3.33-2.47-3.33-4.82Zm-304.74,6.42c0-5.07,0-10.13,0-15.2,0-1.63,1.77-4.8-2-3.84-2.64.67-7.66-1.1-7.1,4.52.95,9.47.12,18.95.53,28.42.17,3.74-2.51,7.35-1.47,10.68,2.4,7.74,1.33,15.53,1.27,23.27,0,7.32.1,7.7,7.1,5.29,1.77-.61,2.21-1.33,2.06-3.21-.35-4.13-.27-8.3-.42-12.44a23.88,23.88,0,0,1,3.31-13c1.22,8.43,2.21,15.56,3.33,22.67.23,1.47-.09,3.77,2.44,3.6,2.76-.19,5.63-.22,8-1.89.25-.18,0-1.24-.16-1.82-3.93-12.41-4.93-25.4-7.66-38.05a16,16,0,0,1,.68-8.76c2.49-7.5,4.78-15.07,7.17-22.7-10,.63-10,.64-12.3,9.47C116.29,429.79,115.36,434.28,112.67,438.35ZM337.29,452c.3-5.27.76-11.88-3-16.94-3.89-5.28-6.69-11.1-10.25-16.49-2.17-3.3-2.17-6.87-2.07-10.57.06-2.4,1.26-3.16,3.47-3.15s2.94,1.12,2.95,3.11c0,2.17,0,4.34.09,6.5.24,4.5,3.69,2.69,6,2.91,2.62.26,3.28-.82,3-3.56-.45-4.46-.13-9-.28-13.48-.13-3.76-2.05-5.91-6-5.78-4.33.14-8.65.38-13,.56-3.24.14-4.43,2-5.07,5.05-3,14.17,4.44,25.65,10.69,36.8,3,5.29,4.8,9.84,4.54,15.57-.11,2.3.38,4.83-3.28,4.89-3.83.06-3.33-2.7-3.12-4.85.52-5.43-3.06-4.78-6.44-4.74-4.4.06-2.78,3-2.68,5.3.14,3,.28,6,.31,9,0,4,2.09,5.76,5.94,5.64,1.5,0,3-.21,4.49-.26C336.77,467.11,337.6,468.62,337.29,452Zm347-4.38h0c0-1.67,0-3.33,0-5,0-6.81-.76-7.75-7.58-9.56-3.38-.89-6.78-1.73-10.2-2.44-4.69-1-5.4.21-6.26,5-2.61,14.53,5.61,26.08,10.88,38.11,2.55,5.82,4.95,11,4.45,17.29-.11,1.44.75,3.78-2,3.58-2.12-.16-4.53-.27-4.5-3.44a26.77,26.77,0,0,0-.13-5c-.8-4.33-4.73-3.89-7.51-3.91-3.06,0-1.1,2.75-1.14,4.29-.07,2.83.18,5.67.07,8.49-.19,4.62,2.09,7.13,6.42,8.13,3.89.9,7.77,1.88,11.66,2.76,4.08.93,6-.71,5.91-4.93-.11-5.33.12-10.67-.09-16-.15-3.83-.71-7.79-3-10.95-4.39-6.17-7-13.22-10.51-19.82A16.42,16.42,0,0,1,669,445.1c.11-1.53-.42-3.77,2.33-3.35,1.87.28,4.22.26,4.22,3.18,0,2.33.18,4.68,0,7-.33,5.16,3.78,5.05,6.8,5.23,4.53.28,1.51-3.23,1.87-5A23.17,23.17,0,0,0,684.29,447.66ZM156.46,471.6h.11c0,2.16-.08,4.33,0,6.48.14,3.05,1.76,4.61,4.86,4.26,4.63-.52,9.25-1.08,13.86-1.75,2.73-.39,4.93-2,5-4.79.09-8.11,1.2-16.29-.88-24.32a7.56,7.56,0,0,0-1.63-3.55c-4.77-4.42-6.89-10.55-10.5-15.7-2.18-3.11-2-6.53-2.08-10-.07-3.32,2.33-3.18,4.36-3.47,2.67-.37,2.34,1.74,2.41,3.33.09,2.16,0,4.33.1,6.49.12,3.18,2.44,2.8,4.32,2.25s5.42.76,4.66-3.33c-.83-4.47-.36-9-.52-13.44-.19-5.37-1.24-6.39-6.74-5.79-3.95.44-7.86,1.3-11.8,1.83-3.62.48-4.75,2.78-5.48,6.05-3.09,13.77,4.59,24.58,10.88,35.05,3.15,5.26,4.76,9.78,4.66,15.46,0,2.49-.17,4.67-3.53,4.82-3.78.17-3.15-2.4-3.34-4.69-.14-1.62.94-3.89-1.86-4.42-4.12-.79-7.16,2-6.86,6.26C156.52,469.6,156.46,470.6,156.46,471.6Zm294.72-26.16c0-3.32.19-6.66-.05-10-.29-4,1.6-5.27,5.05-4.25,3,.89,4,0,3.76-2.92-.11-1.48-.05-3,0-4.49.06-2.31-.27-3.94-3.34-3.09-4.12,1.14-5.68-.58-5.47-4.86.44-9-1.59-8.23,8.29-7.85,1,0,2,.23,3,.27,1.51.06,4.09,2.16,4-1.3-.12-2.9,2.35-7.55-2.25-8.4-6.49-1.21-13.23-1-19.87-1.45-1.94-.12-2.59.71-2.36,2.7,1.09,9.62.11,19.29.59,28.91.18,3.6-2.36,6.89-1.47,10.19,2.4,8.9,1.34,17.83.93,26.74-.11,2.5.09,3.64,2.82,3.81,6,.37,11.91,1.06,17.88,1.44s3.4-4.32,3.86-7.06c.59-3.5-1.32-3.42-4.18-3.13-10.14,1-11.12,0-11.12-9.8C451.17,449.1,451.17,447.27,451.18,445.44ZM65,442.52c0-2.93,0-5.1,0-7.26,0-4.16-2-5.79-6-4.83-5.5,1.3-11,2.65-16.48,3.93-1.8.43-2.35,1.42-2.11,3.25,1.29,9.76.18,19.59.66,29.37.18,3.72-2.22,7.11-1.26,10.75,2.17,8.21,1,16.51,1,24.78,0,1.44-1.16,3.63.29,4.13,2.54.89,5.11-.74,7.63-1.45,1.8-.51,1.19-1.9,1.17-3.25-.16-11-.17-21.93-.31-32.9,0-2.41.85-3.94,3.31-4,6.63-.17,8.79-4.53,10.38-10.07C64.5,450.58,65.39,446.29,65,442.52Zm297.11-23.61c0-3.66.06-7.33,0-11-.05-2.48.94-4.14,3.49-3.43,3.94,1.09,4.59-.68,4.37-4-.2-3.11.68-6.57-4.56-6.19-4.81.34-9.66,0-14.49.11-1.7,0-4.1-.86-4.81,1.44a15.59,15.59,0,0,0,0,8.38c.19.76,1,.81,1.66.6,5.89-1.94,5.93,1.78,5.69,5.83-.47,8.27-.86,16.67-.83,24.82,0,9.7,1,19.47.25,29.25-.08,1.06.06,2.19,1.34,2.22,2.64.07,5.54.55,7.85-.36,1.89-.74-.06-3.26.08-5,.12-1.48-.08-3,0-4.49.31-6.95.32-13.9.9-20.87C363.47,430.69,362.05,424.73,362.12,418.91Zm-148.69-9.58c0-5.68-.1-6.24-2.75-6a170.7,170.7,0,0,0-18.76,2.48c-4.61,1-2.34,5.19-2.49,8-.2,3.75,2.44,1.88,4.15,1.59,2.25-.38,3.53.33,3.5,2.81q-.15,11.22-.22,22.44c0,2.34-2,4.34-1.29,6.72,2.67,8.66,1.5,17.44,1,26.2-.12,2.12-.39,4.38,2.79,3.61,2.46-.59,6.61,1.39,6.62-3.54,0-7.14,0-14.29-.41-21.41-.17-3.08,2.08-5.68,1.24-8.74-2.45-8.84-.59-17.85-1.12-26.76-.14-2.36,1.34-3.72,3.36-3.23C213.64,414.6,213.71,412,213.43,409.33Zm-67.61,3.38c-2,.38-3.9.8-5.87,1.15-1.57.27-2.19,1-1.95,2.72,1.13,8.11.17,16.29.57,24.42.25,5.19-1.76,10.42-1,15.29,1.36,8.83.84,17.56.67,26.34,0,2-.19,4.3,2.52,3.35,2.38-.83,7.3,1.17,6.77-3.54-1.36-12,1-24,0-36-.86-10.4,0-20.94.2-31.41C147.75,413.43,147.91,412.26,145.82,412.71Zm149,42c0,3.49.43,7.05-.12,10.46-.64,4,2,3.32,3.85,3.05,2.12-.3,6.18,1.75,5.46-3.19-.64-4.33-.22-8.65-.47-13-.32-5.51,1.84-11.11,1.11-16.27-1.75-12.31-1-24.52-.62-36.79,0-1.38,1-3-1.45-3.48-5-1-7.78,1.15-7.59,6.11.06,1.83.11,3.67,0,5.5-.59,9.92.23,19.83-.88,29.83C293.55,442.5,294.93,448.75,294.86,454.71Zm174.27-28c0-12.83,0-12.86-8-14.74-1.68-.39-3.79-1.38-4.58,1.21s1.07,3.07,3,3.42c4,.72,5.43,3.29,5.15,7.18a48.17,48.17,0,0,0,0,6.47c.21,3.73-1.64,6-5.18,5.72-3.15-.26-3.19,1.2-3.17,3.39,0,4.65,0,9.3,0,14,0,1.27-.3,2.84,1.33,3.42,3.44,1.23,6.87-.37,10.27-.58,2.16-.13.78-3.7,1.12-5.71.76-4.37-3-8.34-1.41-12.66A31,31,0,0,0,469.13,426.69ZM133.29,424c-11.06,17.18-3.39,34.3-.09,51.42C131.31,458.27,134.39,441.14,133.29,424Zm535.86,55.79c-6-9.54-8.11-20.38-14.44-29.69a42.86,42.86,0,0,0,.78,12.9c1,4,2.47,7.91.47,12.09-.73,1.52.32,2.45,1.93,2.72C661.45,478.38,665,479,669.15,479.76Zm-360-59c-.91.8-.37,1.86-.52,2.77-1.08,6.52,3.73,12.91.37,19.53-.54,1.05.43,1.77,1.69,1.64l11.9-1.17C315.53,436.82,315.69,426.92,309.11,420.78ZM152.78,437.26c-.17.94-.26,1.4-.35,1.87-1.33,6.63,3.47,13.19.16,19.89-.51,1,.64,1.68,1.87,1.39,3.63-.85,7.26-1.68,11.59-2.68C159.22,452.13,159.18,443.1,152.78,437.26Zm61,4.46c.51-7.18,1-13.84,1.4-20.51.08-1.31.65-3.27-1.66-3.44s-2.71,1.41-2.71,3.25c0,5.62,0,11.24.08,16.86C210.88,439.16,211,440.56,213.75,441.72Zm155.77-7.31c3-8.59,1-16.38,2.51-23.79.23-1.18-.73-1.73-1.95-1.57s-2.72.34-2.75,2.18c0,2.82-.23,5.66-.06,8.47C367.54,424.21,366.13,429,369.52,434.41Zm-.92,30.25c1.15-8.69,2.81-17.49.37-26.33C366.51,447,367.17,455.78,368.6,464.66Zm286-22.16a21.39,21.39,0,0,0-.08-10A15.5,15.5,0,0,0,654.61,442.5Zm-556-5.92c.14-2.87,1.24-5.86-.92-10C97.67,430.88,97.3,433.77,98.61,436.58ZM247,405.37h-.31v12.68H247ZM571,419.14h-.37v11H571Z"/><path class="cls-5" d="M362.1,278.81c-5,11-4.87,10.63-16.2,6.49-15.77-5.76-26.94-17.47-38.77-28.45a98.09,98.09,0,0,1-15.33-17.71,65.84,65.84,0,0,0-5-6.21c-.76-.88-1.77-1.92-3-1.25-1,.54-.41,1.78-.27,2.76.17,1.18,1.56,2.61-.14,3.5-1.15.61-2.1-.65-3.1-1.19-8.34-4.5-10.05-13.27-13.38-20.95-.73-1.71.33-3.69,1.28-5.21,9.84-15.8,12.63-33.86,16.81-51.5a95,95,0,0,0,2.21-24.29c0-1.59.38-3.33-2-5.91-1.67,27.82-7.17,53.68-20,78.82.16-14.34-1.5-27.54,3.87-40.55,7.36-17.83,10.19-36.8,12.29-55.91a244.56,244.56,0,0,1,13.07-56.31c1.79-5,5.58-8.19,9.64-11.16,16-11.71,33.21-20.84,52.46-26.13,7.56-2.08,14.54-.93,21.46,1.67,19.13,7.19,35.68,18.55,50.84,32.07,4.25,3.79,7.31,8.47,8.17,14,4.62,29.75,10.88,59.35,9.27,89.73-.42,7.76-1.36,15.49-2.11,23.86-3.92-2.05-4.06-5.46-4.81-8.28-3.91-14.86-9.36-29.17-15.24-43.33-.47-1.15-.55-2.68-2.17-3.2-1,1.7,0,3.3.48,4.68,6.88,18.22,12.34,36.92,18.78,55.27,3.28,9.35,3.18,17.74.8,26.73a5.48,5.48,0,0,1-.56,1.38,3.93,3.93,0,0,1-.8.73c-2.11-6.12-1.65-12.79-4.72-20-1.23,6.28-.48,11.28-.19,16.27.27,4.49.76,9,.74,13.46-.05,11.81-7.89,23.4-18.94,27.6-6.83,2.6-13.89,4.63-20.9,6.76a74.4,74.4,0,0,0-13.4,5.37c-5.63,3-11.95,2.44-18.11,2.59-12.21.29-22.69-3.88-31.76-11.88l-.07.08,25.05,4.5a25.39,25.39,0,0,0,15.1-1.93,204.1,204.1,0,0,0,32-17.43c1.36-.91,2.79-1.72,4.3-2.65,1.21,2.72-1.51,4.55-.84,7.24,2.23.34,3.45-1.35,4.65-2.75a30.17,30.17,0,0,0,6.89-15.3c5.39-33.91,1.2-66-17.8-95.44-7.93-12.31-13.58-26-21.63-38.27a51.68,51.68,0,0,0-5.71-7.56c-3.14-3.27-6.62-6.18,1-9.55-7.94-.66-13.92,1.72-19.49,5.31-15.2,9.78-25.94,23.81-35.85,38.5-16.1,23.88-23.21,50.67-24.49,79.16-.41,8.95-1.81,17.91-.06,26.86-1.27-.48-2-.18-1.56,1.29.77,2.53,1.48,5.09,3.23,7.19a30.38,30.38,0,0,0,7,9.61C316,252.74,328,262.27,339.59,272.29c6.24,5.41,13.11,7.54,21.17,5.37ZM352.49,70.27a88.94,88.94,0,0,1,16.48-7,103.66,103.66,0,0,1,11.15-2.61c1.44-.26,3.16-.78,3.37-2.51.25-2-1.58-2.7-3.07-3.41-2.39-1.14-4.91-.7-7.37-.39a38.55,38.55,0,0,1-11.94-.08c-1-.19-2.09-.44-2.37-1.5s.88-1.62,1.59-2.26c2.12-1.89,5.2-2.74,6.77-5.6-2.5-1.35-4.66-.37-6.74-.56-1.58-.14-3.56.38-4.1-1.85-.43-1.78.42-3.18,1.71-4.42,4-3.86,4-3.9-1.41-5.87-1.08-.4-2.53-.55-2.75-1.8-.29-1.67,1.32-2.14,2.48-2.69,4.73-2.25,9.66-2,14.65-1.06,5.62,1.1,10.53,4.08,15.9,5.83,1.74.57,3.48,2,5.81.15-6.61-6.78-14.65-10-23.21-12.37A19.25,19.25,0,0,0,355,21.44c-7.88,3.95-15.91,7.68-23.09,12.82-5.58,4-10.81,8.47-16.78,13.19,6.47,1.56,7.15,2.7,5.49,7.89s-5,9.75-7.59,14.57c-.54,1-1.64,2.14-.91,3.16,1,1.4,2.41.07,3.64-.1a9.29,9.29,0,0,0,1.38-.56c5.17-1.58,6.31-.52,5.13,4.77-2.28,3.47-4.59,6.92-6.84,10.41-.72,1.1-1.72,2.39-.74,3.64s2.53.39,3.74.07c1.85-.5,3.62-1.3,5.58-2,.38,3-2.67,4.77-2.12,8.39C332.08,88,341.59,78.33,352.49,70.27Z"/><path class="cls-5" d="M321.91,299.77a291.42,291.42,0,0,0-37.48,21.85c-1,.66-2.12,1.52-1.25,2.8.68,1,1.91.35,2.72-.1,7.42-4.07,16.14-2.35,23.88-5.75,5.38-2.36,6.92-.29,5.3,5.34,2.45.23,3.54-1.75,4.79-3a156.19,156.19,0,0,1,35.62-27c11.32-6.44,21-15.75,31.44-23.78,1.85-1.42,3.77-2.74,5.64-4.14,2.26-1.68,4-.38,5.88.85,2.14,1.43.51,2.81.14,4.32-2,8.34-8.28,13.89-13.2,20.28-9.24,12-18.79,23.8-28.09,35.77-1.9,2.45-3.14,3.2-5.76.64-4.13-4-6-3.61-10.05.43-5.37,5.35-12,6.66-19.28,5.45-6.65-1.11-13.65-1.91-19.76.41s-11.19,1.39-16.73-.37c-8.45-10.36-17.13-20.58-22.64-33,4.85-3.4,10.57-6.92,16-6,4.91.88,7.95-1.11,11.69-2.48,3.58-1.32,7.18-2.61,10.68-4.14,4.58-2,9.14-4.07,13-7.51-8.58.48-17.08.32-25.14,3.37-2.95,1.11-5.94,2.15-9,3-1.81.51-4,.49-4.71-1.59s1.34-2.85,2.77-3.5c5.77-2.61,11-6.12,16.3-9.54,2.16-.59,4.3-1.21,5.65-3.22a2,2,0,0,0,.44-.09c.1,0,.16-.16.24-.25l-.65.38a12.26,12.26,0,0,0-5.87,2.19c-2,.79-4.05,1.49-6,2.38-10.87,4.92-22.62,5.11-34.17,6.4l.07.07c-.35-.52-.7-1-1-1.55a78.08,78.08,0,0,1-6.21-19.56,100.23,100.23,0,0,0,18.52-9.79c8.08-5.67,15.9-5.53,24.18-.32,10,6.26,18.31,14.43,26.66,22.5a82.49,82.49,0,0,0,25.23,16.72c3.72,1.59,3.78,2.83.56,5.16-7.11,5.12-14,10.49-23,12.86.31-2.78,2.74-3.77,3.31-5.86.06-.25.13-.5.19-.75Zm37.87,16.83c8.71-7.42,15.56-16.41,21.67-26,2-3.09.57-6.83-1.41-8.67-1.7-1.57-2.94,2.19-4.48,3.45a24.51,24.51,0,0,0-2.69,3l-20.93,24.25c6.26-1.73,8.54-7,13.16-8.62l.26.26-6.19,11.84c-.21.34-.66.9-.59,1C359.29,317.83,359.44,316.94,359.78,316.6Z"/><path class="cls-5" d="M277.31,105.32c-1.72,23.84-5.7,47.16-15.8,69.08-2.1,4.57-3.79,9.24-3.47,14.39.14,2.35-.4,4.13-2.9,5.14-6.63,2.67-13.17,5.52-19.75,8.3a358,358,0,0,1-4.56-38.45c-1-15.36-3.14-30.68-2.28-46.13Z"/><path class="cls-5" d="M484.66,195.25c-4.54-7-11.34-9.82-19.32-10.52-4-.35-7.1.82-9.21,4.49-2,3.42-4.22,6.68-7,11-.91-7.86-1.35-14.57-.56-21.21,2.84-24,3.58-48-.86-71.94l42.42,10.44c1.1,11,0,21.85-.82,32.74C488.14,165.31,487.2,180.36,484.66,195.25Z"/><path class="cls-6" d="M228.55,117.65c-.86,15.45,1.28,30.77,2.28,46.13a358,358,0,0,0,4.56,38.45l.84,4.76c.21,1.45.42,2.9.64,4.36.34,2.26.69,4.53,1,6.79,1.4,9.62,2.72,19.25,6,28.46a39.47,39.47,0,0,0,3.15,12.55,77.85,77.85,0,0,0,6.2,19.57l1,1.54-.07-.07c1.35,7.53,4.89,14.12,8.82,20.55,5.51,12.39,14.19,22.61,22.64,33-4.23,1.23-8.6.57-12.9.89-2.88.21-3.75-2.57-5.08-4.28-14.17-18.25-23.7-38.83-30.21-60.89-10.09-34.14-15.24-69.12-18.3-104.52-1.43-16.43-2-32.88-2.86-49.33-.09-1.82.13-3.65.21-5.47C221.12,111.75,224.2,115.7,228.55,117.65Z"/><path class="cls-7" d="M409.27,166.22a2.14,2.14,0,0,1,1,.14c-1.06,2.47-2.37,4.88-2,7.72-.24.43-2.15-.19-.85,1.13,1.16,1.16,2.57,2,2.47,4-1.19.58-2.65.89-3.53,1.78-3.87,3.93-7.15,3.07-10.57-.67a11.43,11.43,0,0,0-6.74-4l-2.7-2.26a4.67,4.67,0,0,0-3.94-3.81,50.33,50.33,0,0,0-13-20c-.71-.39-1.62-1-2.19-.24-3.69,5.15-6.77,2.11-9.91-.63-1.74-1.32-2.88-.05-3.62,1.15-3.86,6.21-7.58,12.51-11.35,18.78-2,.52-2.64,2.13-3,3.92l-2.65,2.22c-4.52.79-7.32,4.35-10.82,6.78-2.44,1.69-4.57,2.5-7.11.21-.78-.71-2.1-.83-3.18-1.22-3-5,2.68-5.59,4.51-8.94l-6.55,2.23c-1.39-2.66.51-5.38-.13-8.06l2-.56-1-.68c1.21-1.83.49-4.34,2.09-6.05,3.1.19,6.17,2.43,9.32.2a.35.35,0,0,0,.35.32c2.51,1.37,4.85.59,6.92-.86,5-3.49,10.25-6.73,13.89-11.79a7.29,7.29,0,0,1,4.44-2.81c1.9-.51,3.86-1.19,2.92-3.91v0c1.23.19.91-.43.54-1.06.42-.49.84-1,1.25-1.49.27-1.3.53-2.6.8-3.9l1.12-.19a6.87,6.87,0,0,0,8.78.39c3.62-2.47,5.8-1.8,7.16,2.23l-.75,2.9-4.46.2c.35,1.45.66,3.13,1.87,3.46,6.86,1.88,10.21,8,15,12.32,6.58,5.88,13.85,5.8,21.64,4.32C407.9,161.69,405.71,164.82,409.27,166.22Zm-21.61-5.39-1-1-2-1.13a1.87,1.87,0,0,0-1.82-1.6L381.52,156c-1.63-2-3.21-4-6.14-5.21.39,3.7,1.95,5.74,5.37,6.15l1.48.8c.16,1,.93,1.46,1.76,1.85l2,1,.94,1,1.1.93c.51.13,1.38.48,1.46.35.47-.75-.3-.84-.76-1.07Zm-51.32,1.4,2.26-1.63,1.76-1.33c3-2.5,8.64-2.25,8.63-8.51-3.75,2.2-6.33,5.23-9.3,7.76l-1.42,1.64c-1,.39-2,.75-1.86,2.16l-1.35.11.12.46Z"/><path class="cls-8" d="M373.92,136.21c-1.36-4-3.54-4.7-7.16-2.23a6.87,6.87,0,0,1-8.78-.39c1.4-2.62,2.18-6.59,4.33-7.59,4.68-2.19,4.64-5.86,5.08-9.72.23-.19.66-.53.65-.55-.38-.54-.78-.29-1.16,0-1.29,6.91-8.08,10.3-10.52,16.47-.38.28-1.09.56-1.09.84,0,.94.82.81,1.47.81l.12-.09c-.27,1.3-.53,2.6-.8,3.9l-1.76,1.52c-.11.11-.33.24-.32.33a3.56,3.56,0,0,0,.29.7v0c-.32-2-2.19.06-2.82-1.09-1.16-3-2.21-6.09-5.24-7.85.53-1.35,0-2.1-1.4-2.48a2.46,2.46,0,0,0,1.51,2.41c.73,3.17,3.58,5.52,3.53,9a3.65,3.65,0,0,1-4.61-.27c-6.3-5.4-12.83-10.57-17.49-17.59l5.87-6c9.27-9.54,20.2-13.54,33.38-10a27,27,0,0,1,1.63,4.56c.87,5,2.93,4.75,5.84,1.51l3.83-1c.14,2.06,1.75,3.14,3.13,4.18,4.36,3.3,7.67,7.55,11,11.8-2.73,4-6.45,6.94-10.22,9.84-3.09-1.79-1.41-4.95-2.13-7.41-2.51-2.51-1.86,1.61-3.21,1.53-1.51.06-1.9.84-1.42,2.19Z"/><path class="cls-9" d="M481.23,204.77c-2.38,6.17-1.88,13.71-4.13,20.68-1.67,5.19-9.16,8.18-14.66,5.92A27.8,27.8,0,0,1,452,223.81a6.38,6.38,0,0,1-1.74-3.48c-.43-11.43,4.72-20.83,11.2-29.68a3.18,3.18,0,0,1,1.74-.91C471.76,187.6,481.4,195.23,481.23,204.77Z"/><path class="cls-6" d="M484.66,195.25c2.54-14.89,3.48-29.94,4.65-45,.85-10.89,1.92-21.79.82-32.74,4.21-2.44,8.8-4.42,11.11-9.17,3.34.78,2,3.51,1.87,5.31-.89,17.7-1.85,35.4-3,53.08-.47,6.92-1.59,13.8-2.41,20.69-.13,1.15-.09,2.44-1.45,2.91-3.58,1.23-6.13,3.89-8.81,6.35C484.91,199,484.84,197.1,484.66,195.25Z"/><path class="cls-5" d="M243.94,246.6c-3.32-9.21-4.64-18.84-6-28.46,3.17-2,6.67-3.22,7.92-7.65.82-2.9,4.94-2.16,7.26-3.6,1.24-.76,6.27-1.58.8-4a1.69,1.69,0,0,1-.8-2.52c.81-1.45,2.36-1.74,3.8-2.11,1.19-.3,1.9.4,2.19,1.47a37.18,37.18,0,0,1,.82,3.91c1.9,12.41,5,24.35,14.62,34.89-9.44-1.19-14,5.89-20.67,9.61-1.33-5.68,3-8.22,5.63-12.8-3.9,1.24-5.89,3.51-8.14,5.39C248.91,242.72,246.41,244.64,243.94,246.6Z"/><path class="cls-8" d="M451.23,316.54l-9.88-3.42c.13-2.8,2.51-3.3,4.41-4.11,6.4-2.72,9.86-7.52,10.87-14.35a42.67,42.67,0,0,0,.08-11.89c-.26-2-2.16-4.64-.09-6s4.84.37,6.93,1.61a15.85,15.85,0,0,1,4.36,4,118.25,118.25,0,0,0,10.13,11c7.35,7.43,5.43,17.41-4.31,21.49-3.33,1.39-6.94,2.11-10.43,3.14Z"/><path class="cls-6" d="M463.3,318c3.49-1,7.1-1.75,10.43-3.14,9.74-4.08,11.66-14.06,4.31-21.49a118.25,118.25,0,0,1-10.13-11,15.85,15.85,0,0,0-4.36-4c-2.09-1.24-4.72-3-6.93-1.61s-.17,4,.09,6a42.67,42.67,0,0,1-.08,11.89c-1,6.83-4.47,11.63-10.87,14.35-1.9.81-4.28,1.31-4.41,4.11a24.09,24.09,0,0,1-8.66-3.18c.44-2.23,2.13-1.69,3.24-2a22.38,22.38,0,0,0,16.41-23.19,7.8,7.8,0,0,0-3.89-6.59c-1.9-1.07-2.64-2.53-2.06-4.52.63-2.17,2.65-1.62,4.2-1.73,7.13-.51,13.49,2.21,19.41,5.55,6.62,3.72,13.59,7,19.33,12.16,7.42,6.68,7.63,10.71.73,17.89-.8.84-1.65,1.64-2.47,2.46l-5.41,4.06c-5.5,3.32-11.23,5.85-17.9,5.06Z"/><path class="cls-8" d="M494.3,241.27c-1.56.16-2.32-.88-3-2-1.48-8.23-1.16-16.55-1-24.84a20.92,20.92,0,0,1,3.7-12.22c3.07-4.28,7.44-4.91,12-3.48,4.25,1.32,8,3.58,8.94,9.38-2-1-3.34-1.68-4.7-2.2-2.92-1.11-5.75-2.8-9.05-2.2-1.47.27-3.21.86-3.26,2.59-.07,2.22,2,1.74,3.35,1.87a18.1,18.1,0,0,1,10.89,4.42c2.11,1.94,4.32,4.44,2.76,7.39C510.12,229,507.09,239.94,494.3,241.27Z"/><path class="cls-8" d="M513.18,292.85c-2.36.42-4.5-.59-6.74-1-.47-1.06-1.05-2.09-1.41-3.18-3.92-11.77-2.64-17.32,9.61-15.66,2.88.39,5.81-.5,6.48-4.07.73-3.87.06-7.32-3.7-9.5-.71-.41-1.5-.95-2.26-.27s-.4,1.55.1,2.23,1.34,1.47,2,2.22c.84,1,2.19,1.86,1.22,3.39-.8,1.28-2.25,1.39-3.58,1.27-3.27-.28-5.32-2-5.37-5.4-.16-9.5,6.23-14.38,15.16-11.67a32.74,32.74,0,0,1,3.7,1.47c4.55,2.06,6,5.58,4.55,10.24a49.77,49.77,0,0,1-7.09,14.78c-1.61,2.25-3.63,4.43-3.5,7.54h0C518.44,286.75,516.23,290.31,513.18,292.85Z"/><path class="cls-7" d="M228.55,117.65c-4.35-2-7.43-5.9-12-7.54-.11-1.65,1.15-1.78,2.26-2.07l60.67-15.6c.09,4.67-1.06,8.77-2.2,12.88Z"/><path class="cls-6" d="M367,106.32c-13.18-3.55-24.11.45-33.38,10l-5.87,6c-1.84-1-1.59-2.36-.49-3.69,8.08-9.88,14.85-20.85,24.36-29.53a20.82,20.82,0,0,1,5.48-3.38c4.3-1.93,8.26-1.71,11.83,1.93a92.38,92.38,0,0,1,9.5,11.5c1.08,1.55,1.91,3.13,1,5.06-1.59,2.08-1.77,5.25-4.84,6.17a10.68,10.68,0,0,0-5.15-3.16c-.12-2.48,3.69-4.82.25-7.41L368.55,99c-1.71-3.46-5.64-5-7.48-8.34.37,4.53,4.07,6.35,7.17,8.65l1,1C369.64,102.73,367.74,104.31,367,106.32Z"/><path class="cls-7" d="M501.24,108.38c-2.31,4.75-6.9,6.73-11.11,9.17l-42.42-10.44c-2.92-13.07-2.9-13.13,9.82-9.94C472.11,100.84,486.67,104.64,501.24,108.38Z"/><path class="cls-6" d="M489.05,279.13c-12.91.63-16.73-6.87-18.65-18.4-.66-3.94,1.55-7,5.15-8.89,1.82-1,3.44-1,4.82.81,3.45,4.59,8.06,6.35,13.8,6.6,7.49.33,8,1.59,5.25,8.32-1.37,3.37-3.56,6.31-4.59,9.91C494,280.57,490.78,278.54,489.05,279.13Z"/><path class="cls-8" d="M416.21,290h-1.8c-.87-1.83-2.76-1.66-4.28-2.17-2-.67-3.68-1.56-4.55-3.58-2.92-6.8,6.16-21.53,13.56-22a8.51,8.51,0,0,1,7.23,2.68c1.36,1.46,2.61,3,3.82,4.61,5.83,7.71,3.73,14.17-5.37,17.24C421.93,287.66,418.4,287.09,416.21,290Z"/><path class="cls-6" d="M491.45,312.34c5.47-4.75,9.89-10,7.9-18.13,8.36,4,16.34,6,23.83-1.12.62-.59,1.33-1.11,2.17-.46,1,.81,1.54,2.09.69,3.06-3.41,3.93-1.8,10.56-6.78,13.39-9.43,5.37-18.31,12.47-30.24,11.17-1.83-.2-3.63-.49-4.87-2.09C486.77,316.46,489.55,315,491.45,312.34Z"/><path class="cls-1" d="M390.39,204.65l2,.17c-1.24,2.57-2.71,5.08-2.12,8.13-1.14-.38-2.63-3.52-3.13.67-.28,2.37-.43,6.93-4.84,2.52-1.3-1.29-2.84-1.36-4,.6-.75,1.31-2.4,1.53-3.49,2.27-2.08,1.42-4.56-.24-6.26,1.33-2.91,2.68-4.81,2-6-2.51-1.9,4.31-4,5.61-6.8,2.08-1-1.23-1.52-.4-2.39.06-1.73.91-1.83-.56-2.11-1.67-.08-1.25.32-2.68-1.11-3.44a1.22,1.22,0,0,0-1.09.52c-.42,1.31.56,2.07,1.35,2.87-4,2.81-3.5-3.43-6.13-3.12-2.43.29-3.86,4-7,2.11-.09-.52-.18-1.05-.26-1.57-.87-1.76-.71-3.64-.62-5.5,1.06-1.09,1-2.45.93-3.8,2.39-.2,4.79-1,6.95,1,1.35,1.2,1.17-1.06,2-1.12,2.92,2.18,7.9,2.19,7.89,7.46.3-1.42.6-2.84.89-4.25.38,1.35-.42,2.91.93,4.48.34-1.35.67-2.42.88-3.51.31-1.62,1-3,2.84-2.86,1.95.11,1.41,1.89,1.56,3.08s.24,2.37,1.72,2.71c.62-2-1.55-5.46,2-5.7,3.72-.25,2,4.27,3.87,6,1-1.32.3-2.87.66-4.24l1,4.49c-.57-5.2,4.49-5.18,6.83-7.57,2.92,2.34,5.92-1.77,8.51-.12S389.12,205.78,390.39,204.65Z"/><path class="cls-10" d="M345.31,358.2l1.89,7.05.82,0c.8-4.21,2.05-8.4,2.29-12.65s3-3.45,5.54-3.67c3.39-.29,2.67,2,2.67,3.91,0,8.24,0,16.48.07,24.72,0,2.14-.06,3.52-2.78,3.39-2.49-.12-2.46-1.46-2.34-3.32.16-2.47,0-4.95,0-8.28-2.22,3.18-2.43,6-2.61,8.75s-1.69,2.79-3.71,2.85c-2.18.06-2.78-.89-3-3a16.66,16.66,0,0,0-2.71-7.91c0,2.7-.13,5.4,0,8.08.15,2.36-1,2.78-3,2.77-2.19,0-2.37-1.13-2.18-2.9.64-5.92-.92-11.9.36-17.82Z"/><path class="cls-6" d="M494.3,241.27c12.79-1.33,15.82-12.24,20.59-21.29,1.56-2.95-.65-5.45-2.76-7.39a18.1,18.1,0,0,0-10.89-4.42c-1.35-.13-3.42.35-3.35-1.87.05-1.73,1.79-2.32,3.26-2.59,3.3-.6,6.13,1.09,9.05,2.2,1.36.52,2.65,1.23,4.7,2.2-.95-5.8-4.69-8.06-8.94-9.38-4.58-1.43-8.95-.8-12,3.48a20.92,20.92,0,0,0-3.7,12.22c-.14,8.29-.46,16.61,1,24.84-3.12-2.12-3.6-5.46-3.85-8.77a110.67,110.67,0,0,1,1-24.4,14.27,14.27,0,0,1,11.87-11.77c7.33-.85,15.06,3.09,17.32,9.1,2.91,7.78,3.67,15.45-1.53,22.81-2.1,3-3.6,6.36-5.56,9.45C506.44,242.14,501.74,243.7,494.3,241.27Z"/><path class="cls-6" d="M522.34,285.24c-.13-3.11,1.89-5.29,3.5-7.54a49.77,49.77,0,0,0,7.09-14.78c1.41-4.66,0-8.18-4.55-10.24a32.74,32.74,0,0,0-3.7-1.47c-8.93-2.71-15.32,2.17-15.16,11.67.05,3.35,2.1,5.12,5.37,5.4,1.33.12,2.78,0,3.58-1.27,1-1.53-.38-2.42-1.22-3.39-.65-.75-1.4-1.43-2-2.22s-.89-1.54-.1-2.23,1.55-.14,2.26.27c3.76,2.18,4.43,5.63,3.7,9.5-.67,3.57-3.6,4.46-6.48,4.07-12.25-1.66-13.53,3.89-9.61,15.66.36,1.09.94,2.12,1.41,3.18-4.26-2-8.52-10.93-6.27-15.13,4.73-8.81,7-18.66,12-27.3,3.39-5.82,4.82-6.46,11.25-4.57,15.09,4.43,17.85,11.44,9.61,24.94C529.78,275.14,526.9,280.78,522.34,285.24Z"/><path class="cls-6" d="M416.21,290c2.19-2.87,5.72-2.3,8.61-3.27,9.1-3.07,11.2-9.53,5.37-17.24-1.21-1.59-2.46-3.15-3.82-4.61a8.51,8.51,0,0,0-7.23-2.68c-7.4.51-16.48,15.24-13.56,22,.87,2,2.59,2.91,4.55,3.58,1.52.51,3.41.34,4.28,2.17-10.25,1.24-15.6-5.42-12-14.94,3.77-10,12.3-15.8,23.12-15.7,4.14,0,14.21,8.55,15.5,13.1,1.21,4.24-1.59,10.09-6.86,13.34C428.7,289.11,422.84,291.34,416.21,290Z"/><path class="cls-6" d="M406.34,213.23A196.5,196.5,0,0,1,389.15,237c-2.2,2.67-5.47,3.62-8.86,4.08a137.47,137.47,0,0,1-34.81.16c-5.29-.63-9.44-2.81-12.48-7.24-2.9-4.24-6.44-8-8.87-12.61l.62-.58c4,4.23,8.23,8.25,11.87,12.76a9.51,9.51,0,0,0,8.6,3.8c6.72-.24,13-2.54,19.61-3.51,1.89-.27,3.76-1.07,5.57,0-.31,2.67-3.69,1.9-4,4.24.94,1.34,2.37,1.06,3.65,1.12,12.63.66,25.24-8.58,30.2-22.1l-.13,0C402.91,217,403.44,213.22,406.34,213.23Z"/><path class="cls-10" d="M311.57,381.41c-5.22,1.14-6.57-.92-6.67-6-.13-6.75.55-13.49.15-20.22-.22-3.54.88-5.38,4.69-5.08a29.52,29.52,0,0,0,5-.13c2.79-.25,3.89.94,3.86,3.72q-.12,11.83,0,23.67C318.63,383.08,314.35,381,311.57,381.41Zm2-15.7c0-3,0-6,0-9,0-1,0-2.14-1.37-2.24-1.63-.13-1.84,1.09-1.85,2.32,0,6,0,12,0,18,0,1,0,2.08,1.39,2.21,1.73.16,1.82-1.09,1.83-2.28C313.56,371.7,313.53,368.71,313.53,365.71Z"/><path class="cls-10" d="M406.78,357.92c.52-2.3-1.46-6.37.94-7.42,2.9-1.28,6.81-.38,10.27-.17,2.17.12,2.38,1.9,2.37,3.68,0,7.91-.07,15.83,0,23.74,0,2.8-1.07,3.69-3.83,3.81-9.59.4-9.62.5-9.76-8.93C406.72,367.86,406.78,363.08,406.78,357.92Zm8.53,8.27v-9c0-1.4-.11-2.83-2-2.8-1.58,0-1.68,1.36-1.69,2.53q0,9,0,17.93c0,1.28.39,2.28,2,2.23s1.65-1.32,1.66-2.47C415.32,371.83,415.3,369,415.31,366.19Z"/><path class="cls-6" d="M448.52,227.89c3.61,2.65,6.93,5.59,10.93,7.6,3.61,1.81,7.25,2.48,11,1.06,2.81-1.06,3.79-.61,3.92,2.56.36,8.77-1,10-12.44,9.81C453,248.8,445,236.51,448.52,227.89Z"/><path class="cls-10" d="M279.39,367.09c0,2.82,0,5.65,0,8.48,0,1.3-.18,2.85,1.91,2.65,1.75-.17,1.42-1.59,1.43-2.66,0-1.86-1.06-4.2,2.38-4.12,1.74,0,2.59.41,2.78,2.49.69,7.86-5.29,12.32-12.86,9.48-1.41-.53-.93-1.43-.92-2.37,0-8.92,0-17.83-.08-26.75,0-1.59.12-2.7,1.88-2.77,3.15-.13,6.31-.26,9.46-.18,2.29.07,2.62,2,2.34,3.63-.35,2.1,1.59,4.95-1.3,6.18-1.82.78-4.6,1.48-3.74-2.56.21-1,.36-2.47-1.54-2.39-1.65.07-1.75,1.17-1.74,2.41C279.4,361.43,279.39,364.26,279.39,367.09Z"/><path class="cls-6" d="M414.86,296.45c4.92-1.21,9.4-1.48,13.69-2.88,5.64-1.85,10.69-4.61,14.21-9.61.66-.93,1.24-2.12,2.7-1.72a2.65,2.65,0,0,1,2,2.6c.23,6.32-1.73,11.92-6.55,16-4.18,3.59-12.5,4-16.92,1.35C420.9,300.37,417.9,298.38,414.86,296.45Z"/><path class="cls-6" d="M467.9,271.16c-7.62-3.23-14.48-4.68-21.8-3.51-3.25.51-9.59-7.36-9-10.65A37.54,37.54,0,0,1,442,244.56c1.66-2.85,2.79-2.41,4.64-.2,4.59,5.5,9.72,10.16,17.72,9.11,1.51-.2,2.39.53,1.9,2C464.58,260.5,466.25,265.25,467.9,271.16Zm-7.47-9c0-2.3.1-4.26-2.5-5a25.12,25.12,0,0,1-10.5-6.37c-2.76-2.67-4.76-1.46-5.91,1.75-2,5.64-.56,8.85,5.2,10.68,3.13,1,6.54,1.07,9.69,2C459.77,266.19,460.66,264.87,460.43,262.14Z"/><path class="cls-9" d="M382.39,170.2a4.67,4.67,0,0,1,3.94,3.81l-1.6.87,9.9,13.9c-1.46,1.75.14,5.15-3.19,5.88-.68-3.36-4.68-2.82-6.14-5.19s-2.27-1.07-3.47.35c-1.72,2-1,5.77-4.57,6.43-.18-.49-.37-1-.56-1.47-.94-1.69-3.51-2.17-3.44-4.61,1.56.1,2.49-.44,1.9-2.16s-1.17-3.65-2.7-4.94c-3.08-4.79,2.51-4.62,3.91-6.85l-.06.05,1.06-1.08-.08.08c.35-.37.71-.73,1.07-1.09l-.08.08,1.09-1.09-.11.08.87-.8Z"/><path class="cls-9" d="M339.3,173.13c.4-1.79,1-3.4,3-3.92l2.09,3.15,1.89,2.42a.41.41,0,0,0,.42.43c1.16.88,2.2,2.18,3.52,2.58,3.25,1,3,2.83,1.77,5.16a8,8,0,0,0-2.67,5.12c-.22,2.74.25,5.53-2,7.7l.07-.12c-2.92,1.23-2.39-1.94-3.63-2.85-.75-1.86-2.14-5.52-3.23-4.35-2.26,2.43-6.31,2.49-7.44,6-3.34-1.5-2.64-4.54-2.78-7.26l-.07,0c4.73-3.41,6.41-9,9.67-13.51A6.92,6.92,0,0,0,339.3,173.13Z"/><path class="cls-6" d="M528.11,314.41c-3.46-4.49-1.43-9.08.46-13.16a45.52,45.52,0,0,1,11.59-14.87c5.15-4.5,16.42-.43,17.9,6.29a3.47,3.47,0,0,1-1.13,3.63c-7.13,5.18-10.72,13.56-17.42,19.11l-.61-.62a66.29,66.29,0,0,1,11.76-15.36c1.44-1.45,4.1-2.65,3.15-5.15s-3.79-2.37-6-2.85a6.75,6.75,0,0,0-5.26,1.07c-7.57,5.16-12.79,11.91-13.85,21.33Z"/><path class="cls-6" d="M551.39,280c-5.64-1.71-10.78-.8-15.74,3.87.11-5.67.08-10.32,3-14.46a18.44,18.44,0,0,0,3.37-9.81c.17-3.34,1.16-4.62,4.5-3.6a22.27,22.27,0,0,0,3,.32c11.18,1.7,12.82,4.17,9.6,14.87a33.58,33.58,0,0,0-1,8.39c0,1.36.89,3.35-.93,3.95-1.26.41-2.28-1.09-3.16-2.09a3.8,3.8,0,0,0,2.32-4c-.13-4.34,0-8.61,1.55-12.78.92-2.47-.77-3.71-2.87-4.37-3.19-1-6.26-3.67-9.78-.95a2.05,2.05,0,0,0-.69,1.76C547.08,267.3,545.52,275,551.39,280Z"/><path class="cls-10" d="M383.18,381c-1.33,0-2.66,0-4,0-2,.08-2.94-.33-2.88-2.77.22-8.86.13-17.73.15-26.59,0-.16-.12-.36-.06-.49,2.07-4.45,5.95-1.41,8.92-1.95,1.52-.28,4.61-1.58,4.9,2.16.24,3.09-1.56,2.24-3.46,2.19s-5.43-1.84-5.28,2.73c.05,1.66.22,3.27,2.43,2.58,2.95-.93,2.44,1.08,2.52,2.67.1,1.89-.43,2.82-2.59,2.05-1.75-.62-2.38.45-2.35,2.1a33.39,33.39,0,0,1-.05,5.48c-.63,4.22,1.08,5.67,5.19,5.13,1.39-.18,3.47-.9,3.6,1.94s-1.62,2.81-3.57,2.77C385.51,380.93,384.35,381,383.18,381Z"/><path class="cls-6" d="M482,229.18c.48,1.7.75,2.47.92,3.25,2.26,10.64,6.62,14.34,17.4,14.86,1.62.08,4.19-.77,3.71,2.37-.36,2.37-.57,5.87-3.75,5.58-6.43-.59-13.29-.13-17.63-7C478.83,242.14,478,236.39,482,229.18Z"/><path class="cls-10" d="M443.54,356a19.25,19.25,0,0,1,1.89-3.86c1-1.16,2.48-.79,3.7-.32,1.57.61.92,1.8.54,2.92-2.89,8.4-3.56,17.09-3.23,25.88.09,2.42-1,2.86-3,2.63-1.19-.14-2.75.48-2.52-1.89,1-10.17-.75-20-4-29.6C441.11,350.09,442.71,352.19,443.54,356Z"/><path class="cls-8" d="M551.39,280c-5.87-5-4.31-12.69-6.79-18.91a2.05,2.05,0,0,1,.69-1.76c3.52-2.72,6.59-.05,9.78.95,2.1.66,3.79,1.9,2.87,4.37-1.55,4.17-1.68,8.44-1.55,12.78a3.8,3.8,0,0,1-2.32,4Z"/><path class="cls-6" d="M457.06,323.09a19.1,19.1,0,0,0-2.36,3.16c-3.76,7.87-10.19,9.2-18,7.78-2.37-.43-2.42-1.18-1.11-2.79,2.6-3.2,5.19-6.42,7.82-9.61,2.44-3,5.27.05,7.88-.45C453.26,321.7,455.42,321.6,457.06,323.09Z"/><path class="cls-10" d="M390.29,213c-.59-3,.88-5.56,2.12-8.13,2.72.34,2.7-2.22,3.79-3.6,4.31-.63,1.16-4,2.13-5.84.53-1,2.95-1.38,1.06-3.19l-.06.11c1.29,1,3.95.83,3.22,3.67-.51,2-.77,3.68,1.38,5.28,1.16.86.75,3.12,0,4.64-.63,1.3-1,2.4.35,3.42l-3.9,4.88c-.19-1.18-.38-2.36-.63-3.88C397.85,214.42,394.48,215.24,390.29,213Z"/><path class="cls-5" d="M310.61,239.88c12.72,10.37,26,19.95,39.16,29.78,3.47,2.59,6.81,4.57,11.19,4.6,1.28,0,3.13-.21,3.54,1.16.49,1.63-1.27,2.47-2.4,3.39l-1.34-1.15c-.68-2.78-2.86-1.35-4.29-1.3-3.36.1-6.33-.63-8.5-3.23-5.17-6.2-12.07-10.27-18.27-15.21-6.86-5.46-14-10.59-20.23-16.78Z"/><path class="cls-6" d="M514.29,239.19c2.8-7,4-7.76,11.08-6.95,5.9.67,9.68,4.13,10.49,9.66.09.61.19,1.51-.14,1.84-1.06,1.06-2.17.15-3.16-.31-5.78-2.68-11.66-4.91-18.21-4.19Z"/><path class="cls-6" d="M313.41,207c-8.91-6.8-13.19-15.48-10.9-26.83.26-1.27.14-3,1.38-3.53,1.64-.64,2.53,1,3.51,2.1a35.52,35.52,0,0,0,2.76,2.58c-.67,7.79-3.94,15.82,2.39,22.91C313.14,204.88,313.14,206.06,313.41,207Z"/><path class="cls-2" d="M330.82,143.34a15.1,15.1,0,0,1-12.12-6.67c-1.29-1.78-1.6-3.71,0-5.47s2.84-.29,4.52.44c3.61,1.56,6.31,4.23,9.41,6.41,1.27.9,3.55,1.68,3,3.48C335.07,143.52,332.67,143.12,330.82,143.34Z"/><path class="cls-6" d="M392.43,127.33c-3.32-4.25-6.63-8.5-11-11.8-1.38-1-3-2.12-3.13-4.18,1-2.4,2-4.83,3.91-6.69q5.47,8.61,11,17.21C394.5,123.93,395,125.83,392.43,127.33Z"/><path class="cls-6" d="M413.4,186.27a21.92,21.92,0,0,1,.47-3.36c.42-1.5,1.36-3,3.08-2.62s1.17,2.14,1.19,3.35c.05,4.61.11,9.22-.08,13.82-.22,5.21-4.34,7.75-7.76,10.73a13.71,13.71,0,0,1,2.33-7.87C415.54,195.75,415.18,191.06,413.4,186.27Z"/><path class="cls-10" d="M337.33,206.37c0,1.35.13,2.71-.93,3.8-.94,5.31-5.48,3.41-8.51,3.91s-1.43-3.63-3.44-4.58c-.42-3.29-.93-6.63,3.82-7.14,2.08,2.07,4.25,3.57,7.07,1.19v.09C334.67,205.51,335.38,206.4,337.33,206.37Z"/><path class="cls-11" d="M377.26,196.25c3.57-.66,2.85-4.4,4.57-6.43,1.2-1.42,1.94-2.81,3.47-.35s5.46,1.83,6.14,5.19l-.13,1.55c-3.47-2.16-4.59.71-6.07,2.83-2.08-1.86.27-2.82.87-4.1a1.83,1.83,0,0,0-.71-2.56c-.68-.47-1.46-1-2.25-.43a7,7,0,0,0-2.51,5.72c0,2.2-1.05,4.68,1.17,6.53,1.46,1.22,2.39.14,3.39-.71,1.87,2.2,3.38-.14,5.05-.41.05.52.1,1,.14,1.57-1.27,1.13-1.85,3.27-4.51,1.57s-5.59,2.46-8.51.12a.84.84,0,0,0-.83-.32c5.22-2.88,1.19-6.52.8-9.86Z"/><path class="cls-11" d="M211.42,477.06c-1.07-7.89-.81-15.83-.81-23.75a30,30,0,0,1,.3-4.45c.11-.76.37-1.75,1.44-1.72s1.3,1,1.39,1.77a53.81,53.81,0,0,1-.08,11.9c-.52,5.4-.94,10.81-1.41,16.21l-.41,0Z"/><path class="cls-6" d="M392.22,156.33c-2.72-1.3-5.49-2.54-6.7-6.1,6.92,4.42,14,2.66,21.11,1.28,1.54-.3,2.54-.09,3.17,1.45a2.16,2.16,0,0,1-1.31,3.18c-1.05.46-2,1.16-3.28.91A31.81,31.81,0,0,0,392.22,156.33Z"/><path class="cls-9" d="M389,176.27a11.43,11.43,0,0,1,6.74,4c3.42,3.74,6.7,4.6,10.57.67.88-.89,2.34-1.2,3.53-1.78-.39,5-5.69,6.55-7.21,11.3-1.85-2.08-3.26-3.73-4.74-5.31-1.73-1.85-2,0-2.6,1.07C394.14,182.33,391.08,179.62,389,176.27Z"/><path class="cls-8" d="M345.31,358.2l-8.56,2.05c-.08-2.31-.24-4.61-.21-6.92,0-1.83-1.53-4.51,2.41-4.43,2.89.07,5.75-.34,5.75,3.92A44.52,44.52,0,0,0,345.31,358.2Z"/><path class="cls-7" d="M313.41,207c-.27-.93-.27-2.11-.86-2.77-6.33-7.09-3.06-15.12-2.39-22.91a21,21,0,0,1,1.19,8.28c-.72,8.22,4.57,13.58,8.88,19.44-.29,1.62-1.37,2.18-2.89,2.16C315.48,210.31,314.58,208.52,313.41,207Z"/><path class="cls-6" d="M313.37,166.35c.64,2.68-1.26,5.4.13,8.06-2.42,2.37-4.76,2-7.44.21-2.49-1.68-1.83-3.82-1.71-6.1.18-3.54,3.12-2.55,5-3.29l-.12-.06C310.28,166.75,312,165.82,313.37,166.35Z"/><path class="cls-9" d="M315.54,181.12c1.08.39,2.4.51,3.18,1.22,2.54,2.29,4.67,1.48,7.11-.21,3.5-2.43,6.3-6,10.82-6.78-2.14,4-6.89,6.52-6.38,11.9l.07,0c-5-6.88-4.73,2.79-8.38,1.91C320.25,186.88,317.29,184.51,315.54,181.12Z"/><path class="cls-4" d="M394.22,135.82c5-3.89,6.23-3.61,7.75,1.56.44,1.5.24,2.54-1,3.4-3.46,2.3-7.18,3.3-11.25,2.05-1.59-.5-2.93-1.36-.77-3C392.94,141.3,394.29,140.27,394.22,135.82Z"/><path class="cls-9" d="M326.11,159.58a.35.35,0,0,1-.35-.32c-.93-2.12-3.07-1.34-4.64-1.83-2.28-.71-4.89-.39-6.78-2.28,2-1.5,4-.28,6.06-.24,3,.06,6.45,1.77,9-1.5,3.53.15,6.2-2.63,10.39-3.19C335.72,155.06,330.52,156.74,326.11,159.58Z"/><path class="cls-6" d="M316.44,159.06c-1.6,1.71-.88,4.22-2.09,6.05l-5.1.06.12.06c-4-3.14-4-6-.06-11.11Z"/><path class="cls-7" d="M413.4,186.27c1.78,4.79,2.14,9.48-.77,14a13.71,13.71,0,0,0-2.33,7.87h0c-2.76.55-4,2.31-4,5h0c-2.9,0-3.43,3.73-6.2,3.92.09-1,.17-2,.26-3l3.9-4.88C409.73,202.58,414.44,195.56,413.4,186.27Z"/><path class="cls-11" d="M457.06,323.09c-1.64-1.49-3.8-1.39-5.76-1.91,0-1.55-.05-3.09-.07-4.64L463.3,318l1,1.11v6.51c-2.86-.53-2-3.4-3.34-4.91C459.56,321.33,458.91,323.25,457.06,323.09Z"/><path class="cls-6" d="M329.37,153.41c-2.52,3.27-5.93,1.56-9,1.5-2,0-4.09-1.26-6.06.24l-4.72-2.35c-.19-4.14,1.15-5.81,5.07-3C319.12,152.89,324.49,152.13,329.37,153.41Z"/><path class="cls-6" d="M408.25,174.08c-.38-2.84.93-5.25,2-7.72,3.86,0,7.69,5,6.46,8.53-.59,1.65-1.76,1.31-2.79.75A11.91,11.91,0,0,0,408.25,174.08Z"/><path class="cls-1" d="M385.24,199c1.48-2.12,2.6-5,6.07-2.83.7,2.45,1.65,4.94-1.06,6.87-1.67.27-3.18,2.61-5.05.41C385.21,202,385.23,200.52,385.24,199Z"/><path class="cls-1" d="M335.33,203.64v-.09c-3.46-1.66-3-4.39-2-7.29,3.47-2.29,4.53.74,6.05,2.74l.15,3.95C338.56,205.76,336.83,204,335.33,203.64Z"/><path class="cls-11" d="M339.39,199c-1.52-2-2.58-5-6.05-2.74l-.22-1.79c1.13-3.53,5.18-3.59,7.44-6,1.09-1.17,2.48,2.49,3.23,4.35-.23.18-.44.36-.66.55-1.23-1.26-2.48-2.24-4.19-.64-1.49,1.4-.17,2.34.47,3.4S341,198.05,339.39,199Z"/><path class="cls-6" d="M409.27,166.22c-3.56-1.4-1.37-4.53-2-6.81,2-1,3.78-2.7,5.56.79C415,164.56,411.69,165,409.27,166.22Z"/><path class="cls-7" d="M398.33,195.38c-1,1.85,2.18,5.21-2.13,5.84-2.26-2.13-1.8-9.77.83-11.06,2-1,1.83,1.09,2.3,2.14l.06-.11C398.07,192.94,397.33,193.87,398.33,195.38Z"/><path class="cls-11" d="M389,176.27c2.05,3.35,5.11,6.06,6.29,10-.23.85-.45,1.7-.68,2.55q-5-6.94-9.91-13.9l1.6-.87Z"/><path class="cls-7" d="M380.08,129.76c.72,2.46-1,5.62,2.13,7.41-2.18,1.93-3.86,5.14-7.63,3A21,21,0,0,1,380.08,129.76Z"/><path class="cls-11" d="M491.45,312.34c-1.9,2.61-4.68,4.12-7.3,5.82l-2-4.1,5.41-4.06Z"/><path class="cls-1" d="M328.27,202.36c-4.75.51-4.24,3.85-3.82,7.14q-.27,2.82-.55,5.64c-1.18-2.3-.84-5.36-3.45-6.95l0-5.95c1.32.64,2.44.75,2.89-1h0l2.84.1,1.34.81A1.32,1.32,0,0,1,328.27,202.36Z"/><path class="cls-11" d="M309.62,152.8l4.72,2.35c1.89,1.89,4.5,1.57,6.78,2.28,1.57.49,3.71-.29,4.64,1.83-3.15,2.23-6.22,0-9.32-.2l-7.13-4.94Z"/><path class="cls-7" d="M327.48,202.12l-1.33-.81c.05-.39.11-.78.16-1.16.06-.1.19-.21.18-.29a4.67,4.67,0,0,0-.18-.64l0,0c0-1.3,0-2.6,0-3.9,1.08-1.71-2.28-4.58.33-5s2.51,3.18,3.2,5.18C330.79,198.21,330.66,200.77,327.48,202.12Z"/><path class="cls-10" d="M320.45,208.19c2.61,1.59,2.27,4.65,3.45,6.95l.12,2-3.55-1c-1-1.68-2.69-2.89-3.13-4.92,1.52,0,2.6-.54,2.89-2.16A1.38,1.38,0,0,1,320.45,208.19Z"/><path class="cls-9" d="M392.22,156.33a31.81,31.81,0,0,1,13,.72C400.87,157.05,396.27,161.55,392.22,156.33Z"/><path class="cls-11" d="M380.08,129.76a21,21,0,0,0-5.5,10.41l-1.41-1.06.75-2.9,1.53-2.73c.47-.73.94-1.46,1.42-2.19C378.22,131.37,377.57,127.25,380.08,129.76Z"/><path class="cls-5" d="M300.94,230.52l9.67,9.36-1.14,1.26a43.78,43.78,0,0,1-9.68-9.39Z"/><path class="cls-6" d="M513.18,292.85c3.05-2.54,5.26-6.1,9.17-7.61C520.73,289.51,518.06,292.51,513.18,292.85Z"/><path class="cls-1" d="M326.33,195.3c0,1.3,0,2.6,0,3.9-1.45,0-2.59.46-3,2h0l-2-.79c2.26-2.09-.45-5.2,1.51-7.41C324.77,192.65,324.91,195,326.33,195.3Z"/><path class="cls-2" d="M236.87,211.35c-.22-1.46-.43-2.91-.64-4.36,1.67-.58,3.17-1.74,5.58-1.58C240.77,208.18,240.25,210.86,236.87,211.35Z"/><path class="cls-11" d="M382.22,104.66c-1.93,1.86-2.9,4.29-3.91,6.69l-3.83,1-.84-.88.93-1.1c3.07-.92,3.25-4.09,4.84-6.17Z"/><path class="cls-2" d="M405.33,396.71c-1.31,4.43-.95,9-1.48,13.57-.55-4.88-1.39-9.73-.41-14.62Z"/><path class="cls-12" d="M298.07,232.4c-1.75-2.1-2.46-4.66-3.23-7.19-.45-1.47.29-1.77,1.56-1.29l1.67,2.83c-.6,1.73.56,3.05,1.05,4.53Z"/><path class="cls-6" d="M539.51,315.41c-4.16,3.78-7.83,2-11.4-1l.58-.58c3.3,1.36,6.66,2.16,10.21,1Z"/><path class="cls-11" d="M349.86,140.21c.05-3.49-2.8-5.84-3.53-9l-.11.07c3,1.76,4.08,4.84,5.24,7.85Z"/><path class="cls-12" d="M394.22,135.82c.07,4.45-1.28,5.48-5.3,4Z"/><path class="cls-6" d="M406.33,213.23c0-2.72,1.21-4.48,4-5A8.66,8.66,0,0,1,406.33,213.23Z"/><path class="cls-6" d="M320.47,216.11l3.55,1-.16,0c.3,1.23.59,2.45.89,3.68l-.62.58C322.63,219.81,321.05,218.31,320.47,216.11Z"/><path class="cls-5" d="M299.12,231.28c-.49-1.48-1.65-2.8-1.05-4.53a8.24,8.24,0,0,1,2.87,3.77l-1.15,1.23A4.48,4.48,0,0,1,299.12,231.28Z"/><path class="cls-10" d="M321.36,200.41l2,.79c-.45,1.79-1.57,1.68-2.89,1C320.3,201.4,320.21,200.59,321.36,200.41Z"/><path class="cls-5" d="M333.37,253.15l-.78-.14c.47-.66.49.11.71.22Z"/><path class="cls-6" d="M514.35,239.24l-.41.39c.11-.15.23-.3.35-.44Z"/><path class="cls-8" d="M605.73,457.6c-1.51,9.27-3.3,18.51-4.37,27.82-.37,3.16-1.26,3.16-3.84,3-5.12-.26-7.19-1.79-7.44-7.67-.37-8.87-2.61-17.66-5-26.43v28.2c0,1.47,1,4.24-1.77,3.27-2.58-.91-7.83,1.49-7.42-4a117.29,117.29,0,0,0,.24-20.43c-1.59-15.65,1.92-31.3-.42-46.89-.29-2,.56-2.4,2.22-2.07,2.61.5,5.19,1.23,7.83,1.51s3.58,1.41,3.92,4.07c1.76,13.65,3.75,27.27,5.76,41.63,2.37-3.69,2-7.27,2.5-10.55,1.51-9.18,2.8-18.41,3.93-27.64.41-3.35,1.39-4.58,5.06-3.86,8.73,1.73,8.76,1.54,8.74,10.29,0,8.16-.66,16.39.15,24.46,1.23,12.22-1.43,24.37.08,36.52.27,2.17-.56,2.5-2.42,2.5-5.92,0-6.83-1.28-6.63-7.14.31-8.8.08-17.62.08-26.43Z"/><path class="cls-12" d="M277.08,444c0-6.16.09-12.05,0-17.94-.17-8.48.49-17-.47-25.45-.64-5.65,3.88-2.92,6.21-3.49,3.15-.78,3.19,1,3.11,3.66-.29,10.31-.93,20.71,0,30.95,1,11.86-1.78,23.67.31,35.45.05.31.1.85-.06.95-3.23,2-7,1.13-10.5,1.81-2.29.45-2.49-1.79-2.88-3.32-3.13-12.25-6.2-24.52-9.3-36.77a9.89,9.89,0,0,0-2.26-4.58c0,6.73,0,13.45,0,20.17,0,7.49,0,15,.25,22.47.14,4.06-2.81,3.12-4.79,3.13-1.58,0-4.72,1.85-4.66-1.55.17-9.94-.89-20-.61-29.68.28-10,.31-20.18,1-30.26a17.94,17.94,0,0,0-.32-5.95c-1.23-4.39,1.11-5.05,4.61-5.25,7.41-.4,7.46-.5,9.32,6.71C269,417,272,428.93,275,440.86,275.3,441.9,275.1,443.23,277.08,444Z"/><path class="cls-12" d="M516.26,456.8c0,5.32,0,10.65,0,16,0,1.54.28,3.56-2,2.8-2.47-.8-7.16,1.42-7.21-2.25-.15-10.09-.78-20.26-.56-30.2s.18-20.2.82-30.28c.06-1,0-2,0-3-.13-7.23-.13-7.27,7-6.57,3.64.35,7.26.92,10.9,1.34,3.93.46,6,2.62,6,6.6-.09,7.26,1.17,14.66-2.47,21.56-1.28,2.43-.76,5.24-.47,7.88q1.86,16.85,3.86,33.68c.24,2,.68,4.19-2.23,3.42-2.4-.64-6.63,1.7-6.89-3.26-.58-11.29-2-22.49-3.34-33.7-.19-1.59.59-4.48-2.17-4.13-2.38.31-1.33,3-1.37,4.65-.15,5.16-.06,10.32-.06,15.49Zm-.5-36.87c1.42,1.95-1.64,6.54,3.22,6.23,4.17-.28,3.41-4.44,3.65-7.44s-.26-5.59-4-5.25C514.14,413.88,517,417.67,515.76,419.93Z"/><path class="cls-12" d="M218,460.39a98.4,98.4,0,0,0,.13-15.83c-.39-4.58,1.23-9.66,1.59-14.62a219.52,219.52,0,0,0,.59-24.86c-.09-2.22.71-3,2.71-3.17,5.3-.49,10.59-1,15.88-1.56,2.67-.26,2.39,1.52,2.29,3.25a159.86,159.86,0,0,0,1.12,28.88c1.57,12.33,0,24.67,1.5,36.95.62,4.93-4.2,2.93-6.57,3.59-3,.84-2.61-1.37-2.62-3.63,0-10.63-.16-21.27-1.16-31.87-.13-1.46,0-3.15-2.25-3.1s-3.06,1.45-3.11,3.59c-.28,10.79-.87,21.59-.83,32.38,0,6.1-4.36,3.57-7,4.17-3.66.81-2.33-1.87-2.28-3.71C218.09,467.36,218,463.87,218,460.39Zm14.9-42.77c-1.6-1.63,1.54-5.74-2.12-5.81-2.69-.05-1.61,3.86-1.58,5.95s-1.79,6,1.69,6C234,423.81,231.94,420,232.92,417.62Z"/><path class="cls-12" d="M498.08,423.49a132.2,132.2,0,0,1,.76,18.41c-.32,9.23-.2,18.53-.92,27.76-.2,2.71-2.13,4.13-4.87,3.89-5.46-.49-10.9-1.15-16.36-1.68-2.89-.28-3-1.72-2.91-4.4.32-8.59,1.55-17.26-.92-25.77-.94-3.23,1.49-6,1.35-9.25-.43-10.13.6-20.3-.59-30.41-.28-2.43.77-3,2.77-2.79,5.78.62,11.58,1.15,17.33,2,3.4.52,4.34,3.27,4.35,6.36C498.1,412.63,498.08,417.62,498.08,423.49Zm-8.62,13.41c0-7.66-.06-15.32,0-23,0-3.05-1.77-3.52-4.17-3.66s-2.67,1.4-2.67,3.2c0,15.33,0,30.65,0,46,0,3,1.84,3.56,4.2,3.69,2.88.16,2.62-1.94,2.63-3.74C489.49,451.89,489.47,444.4,489.46,436.9Z"/><path class="cls-12" d="M641.59,478.37c0-5.48,0-11,0-16.44,0-2.42-.51-4.46-3.41-4.43s-2.06,2.61-2.13,4.13c-.43,10.13-.7,20.27-1,30.41,0,1.6.43,3.88-2.26,3.18s-7.26.83-7.13-3.25c.33-9.78-.3-19.71.63-29.25,1.06-10.89,1.39-21.8,2.22-32.69.6-7.77.24-7.8,7.94-6.2,4.06.84,9.22.2,11.87,2.95,2.5,2.6.2,7.54.7,11.45,1.24,9.85,1,19.81,2.22,29.73.77,6.5.32,13.77,0,20.68-.08,1.49.19,3,.11,4.48-.11,1.94,1.8,4.63,0,5.59-2.28,1.2-5.11-.5-7.66-1.11-1.75-.42-1.28-1.93-1.26-3.28.09-5.31,0-10.63,0-15.95Zm-.88-33.59c-.15-2.82-.27-5.65-.44-8.47a1.69,1.69,0,0,0-1.44-1.77c-1-.1-1.37.75-1.44,1.63-.23,3-.49,6-.61,9-.07,1.68,1.07,2.41,2.6,2.3S640.84,445.93,640.71,444.78Z"/><path class="cls-12" d="M93.25,440c.43,7.94,1.41,15.91,1.8,23.74a205.27,205.27,0,0,1,.11,21.78,25.38,25.38,0,0,0,.17,4,6.11,6.11,0,0,1-7.6,6.66c-2-.5-1.25-2-1.29-3.18-.31-10.14-.57-20.28-1-30.42-.07-1.75.76-4.43-2.51-4.39s-3.1,2.53-3.16,4.67q-.49,15.72-.82,31.44c-.06,3-6,6.95-8.75,5.65a1.44,1.44,0,0,1-.78-1.62c.75-9.94-.14-20,.73-29.78,1-11.24,1.51-22.51,2.24-33.75.51-7.94.13-8,8.17-9.59,3.74-.73,8.32-2.86,11.08-1.48,3.25,1.63.17,6.77,1.08,10.32A34.58,34.58,0,0,1,93.25,440Zm-12.77,3.66c.54,1.7-1,4.31,2.07,4.28,2.26,0,2.25-2,2.13-3.69a2.81,2.81,0,0,0-.14-1c-1.14-2.62,1-8-1.56-7.74C79.12,435.86,82.32,441.18,80.48,443.66Z"/><path class="cls-12" d="M565.13,428.67c1.27,7.82,1.51,15.52,2.07,23,.49,6.48.17,13.44.12,20.19a47.71,47.71,0,0,1,0,5.48c-.23,1.88,2,4.44-.3,5.43s-5.19-.45-7.69-1.2c-1.63-.49-.87-2.2-.88-3.49,0-10.81-.19-21.61-1.1-32.38-.17-2-.36-3.7-2.93-3.64-2.94.06-2.35,2.35-2.38,4-.16,10.78-1.75,21.52-.87,32.32.06.84.13,2-.82,2.05-2.64,0-5.37.1-7.81-1.09-2.21-1.08-.55-2.95-.61-4.45-.31-8.6,1.7-17.14-.12-25.84-.69-3.27,1.68-6.84,1.76-10.59.22-9.46,1.12-18.91.67-28.38-.1-2.15,1-2.57,2.78-2.31,5.25.78,10.5,1.62,15.76,2.29,2.26.29,2.47,1.45,2.4,3.42C565,418.65,565.13,423.81,565.13,428.67ZM556.71,426c-1-2.4,1.25-6.71-1.9-6.81-3.42-.12-1.74,4.17-1.91,6.46-.16,2.12-1.67,6,2,5.94C558.15,431.55,555.6,427.79,556.71,426Z"/><path class="cls-12" d="M387.5,394.4c3.16.15,6.82-.65,9.35.68,3.3,1.74.44,5.67.82,8.64.9,6.91.63,14,1.3,20.91,1.27,13,.31,26.15,1.63,39.15.34,3.25-.8,4-3.41,3.51-2.29-.45-6.18,1.74-6-3.46.45-10.81-.34-21.61-.86-32.41-.08-1.76-.16-3.39-2.54-3.46-2.74-.09-2.71,1.8-2.79,3.7-.46,10.95-1.7,21.86-1.06,32.87.26,4.47-3.59,2.13-5.58,2.49s-4.3.48-3.94-3.18a144.46,144.46,0,0,0,1.05-19.92c-.6-15.55,2.89-30.92,1.71-46.47-.17-2.21.72-3.06,2.78-3.06Zm2.22,17c-.9-2.2.91-6.35-1.92-6.36-3.63,0-1.91,4.16-2,6.41,0,2.06-1.66,6,1.94,5.95S388.92,413.48,389.72,411.43Z"/><path class="cls-12" d="M417.41,431.93v21.49c0,2.35-.3,4.71,3.33,4.82s3.51-2.09,3.5-4.54c0-6.83,0-13.67,0-20.5,0-2,0-3.38-2.77-4.28-3.69-1.19-1.51-5.12-1.74-7.82s2.05-2.4,3.91-2.38c8,.12,8.23,1.06,9.33,8.82,1.67,11.81-1.2,23.45-.26,35.18.32,4-1.8,5.8-5.78,5.63-5.16-.21-10.32-.38-15.48-.47-2.62-.05-3.12-1-3-3.72.46-8.93,1.41-17.86-.78-26.8-.84-3.44,1.5-7,1.34-10.74-.3-7.65-.16-15.33-.06-23,.07-6,2.54-8.32,8.64-8.33.67,0,1.34,0,2,0,13.05.4,13.18.62,13.72,13.64.1,2.49-.72,3.7-3,3.07s-6.51,2-6.34-2.88c.11-3.16-1.05-3.72-3.63-3.8-3.12-.09-2.89,2-2.93,4.06,0,.17,0,.34,0,.5Z"/><path class="cls-8" d="M112.67,438.35c2.69-4.07,3.62-8.56,4.79-13,2.34-8.83,2.34-8.84,12.3-9.47-2.39,7.63-4.68,15.2-7.17,22.7a16,16,0,0,0-.68,8.76c2.73,12.65,3.73,25.64,7.66,38.05.19.58.41,1.64.16,1.82-2.41,1.67-5.28,1.7-8,1.89-2.53.17-2.21-2.13-2.44-3.6-1.12-7.11-2.11-14.24-3.33-22.67a23.88,23.88,0,0,0-3.31,13c.15,4.14.07,8.31.42,12.44.15,1.88-.29,2.6-2.06,3.21-7,2.41-7.14,2-7.1-5.29.06-7.74,1.13-15.53-1.27-23.27-1-3.33,1.64-6.94,1.47-10.68-.41-9.47.42-18.95-.53-28.42-.56-5.62,4.46-3.85,7.1-4.52,3.79-1,2,2.21,2,3.84C112.7,428.22,112.67,433.28,112.67,438.35Z"/><path class="cls-12" d="M337.29,452c.31,16.58-.52,15.07-13.62,15.49-1.49.05-3,.22-4.49.26-3.85.12-5.92-1.64-5.94-5.64,0-3-.17-6-.31-9-.1-2.28-1.72-5.24,2.68-5.3,3.38,0,7-.69,6.44,4.74-.21,2.15-.71,4.91,3.12,4.85,3.66-.06,3.17-2.59,3.28-4.89.26-5.73-1.58-10.28-4.54-15.57-6.25-11.15-13.68-22.63-10.69-36.8.64-3,1.83-4.91,5.07-5.05,4.33-.18,8.65-.42,13-.56,3.93-.13,5.85,2,6,5.78.15,4.49-.17,9,.28,13.48.28,2.74-.38,3.82-3,3.56-2.33-.22-5.78,1.59-6-2.91-.12-2.16-.09-4.33-.09-6.5,0-2-.79-3.1-2.95-3.11s-3.41.75-3.47,3.15c-.1,3.7-.1,7.27,2.07,10.57,3.56,5.39,6.36,11.21,10.25,16.49C338.05,440.16,337.59,446.77,337.29,452Z"/><path class="cls-12" d="M684.29,447.66a23.17,23.17,0,0,1-.06,4.49c-.36,1.78,2.66,5.29-1.87,5-3-.18-7.13-.07-6.8-5.23.15-2.32,0-4.67,0-7,0-2.92-2.35-2.9-4.22-3.18-2.75-.42-2.22,1.82-2.33,3.35a16.42,16.42,0,0,0,1.73,9.18c3.52,6.6,6.12,13.65,10.51,19.82,2.25,3.16,2.81,7.12,3,10.95.21,5.32,0,10.66.09,16,.08,4.22-1.83,5.86-5.91,4.93-3.89-.88-7.77-1.86-11.66-2.76-4.33-1-6.61-3.51-6.42-8.13.11-2.82-.14-5.66-.07-8.49,0-1.54-1.92-4.31,1.14-4.29,2.78,0,6.71-.42,7.51,3.91a26.77,26.77,0,0,1,.13,5c0,3.17,2.38,3.28,4.5,3.44,2.8.2,1.94-2.14,2-3.58.5-6.28-1.9-11.47-4.45-17.29-5.27-12-13.49-23.58-10.88-38.11.86-4.79,1.57-6,6.26-5,3.42.71,6.82,1.55,10.2,2.44,6.82,1.81,7.54,2.75,7.58,9.56,0,1.67,0,3.33,0,5Z"/><path class="cls-12" d="M156.46,471.6c0-1,.06-2,0-3-.3-4.26,2.74-7.05,6.86-6.26,2.8.53,1.72,2.8,1.86,4.42.19,2.29-.44,4.86,3.34,4.69,3.36-.15,3.48-2.33,3.53-4.82.1-5.68-1.51-10.2-4.66-15.46-6.29-10.47-14-21.28-10.88-35.05.73-3.27,1.86-5.57,5.48-6.05,3.94-.53,7.85-1.39,11.8-1.83,5.5-.6,6.55.42,6.74,5.79.16,4.48-.31,9,.52,13.44.76,4.09-2.82,2.79-4.66,3.33s-4.2.93-4.32-2.25c-.09-2.16,0-4.33-.1-6.49-.07-1.59.26-3.7-2.41-3.33-2,.29-4.43.15-4.36,3.47.08,3.5-.1,6.92,2.08,10,3.61,5.15,5.73,11.28,10.5,15.7a7.56,7.56,0,0,1,1.63,3.55c2.08,8,1,16.21.88,24.32,0,2.83-2.24,4.4-5,4.79-4.61.67-9.23,1.23-13.86,1.75-3.1.35-4.72-1.21-4.86-4.26-.1-2.15,0-4.32,0-6.48Z"/><path class="cls-12" d="M451.17,445.44v5.49c0,9.83,1,10.84,11.12,9.8,2.86-.29,4.77-.37,4.18,3.13-.46,2.74,2.18,7.44-3.86,7.06s-11.92-1.07-17.88-1.44c-2.73-.17-2.93-1.31-2.82-3.81.41-8.91,1.47-17.84-.93-26.74-.89-3.3,1.65-6.59,1.47-10.19-.48-9.62.5-19.29-.59-28.91-.23-2,.42-2.82,2.36-2.7,6.64.41,13.38.24,19.87,1.45,4.6.85,2.13,5.5,2.25,8.4.13,3.46-2.45,1.36-4,1.3-1,0-2-.23-3-.27-9.88-.38-7.85-1.17-8.29,7.85-.21,4.28,1.35,6,5.47,4.86,3.07-.85,3.4.78,3.34,3.09,0,1.5-.09,3,0,4.49.21,2.94-.76,3.81-3.76,2.92-3.45-1-5.34.26-5.05,4.25C451.37,438.78,451.18,442.12,451.17,445.44Z"/><path class="cls-8" d="M65,442.52c.38,3.77-.51,8.06-1.77,12.45-1.59,5.54-3.75,9.9-10.38,10.07-2.46.06-3.34,1.59-3.31,4,.14,11,.15,21.94.31,32.9,0,1.35.63,2.74-1.17,3.25-2.52.71-5.09,2.34-7.63,1.45-1.45-.5-.3-2.69-.29-4.13,0-8.27,1.22-16.57-1-24.78-1-3.64,1.44-7,1.26-10.75-.48-9.78.63-19.61-.66-29.37-.24-1.83.31-2.82,2.11-3.25,5.5-1.28,11-2.63,16.48-3.93,4-1,6.05.67,6,4.83C65,437.42,65,439.59,65,442.52Zm-15.47,6.56c.42,1.81-.85,4.22,1.07,5.85a2.38,2.38,0,0,0,3.19-.51c2.78-3.31,2.8-7.3,2.42-11.33-.15-1.58-1.27-1.61-2.55-1.55C48.32,441.78,49.77,445.77,49.54,449.08Z"/><path class="cls-12" d="M362.13,418.91c-.08,5.82,1.34,11.78.89,17.3-.58,7-.59,13.92-.9,20.87-.06,1.49.14,3,0,4.49-.14,1.75,1.81,4.27-.08,5-2.31.91-5.21.43-7.85.36-1.28,0-1.42-1.16-1.34-2.22.76-9.78-.21-19.55-.25-29.25,0-8.15.36-16.55.83-24.82.24-4,.2-7.77-5.69-5.83-.65.21-1.47.16-1.66-.6a15.59,15.59,0,0,1,0-8.38c.71-2.3,3.11-1.41,4.81-1.44,4.83-.11,9.68.23,14.49-.11,5.24-.38,4.36,3.08,4.56,6.19.22,3.32-.43,5.09-4.37,4-2.55-.71-3.54.95-3.49,3.43C362.18,411.58,362.12,415.25,362.13,418.91Z"/><path class="cls-8" d="M213.43,409.33c.28,2.71.21,5.27-4.35,4.15-2-.49-3.5.87-3.36,3.23.53,8.91-1.33,17.92,1.12,26.76.84,3.06-1.41,5.66-1.24,8.74.39,7.12.43,14.27.41,21.41,0,4.93-4.16,2.95-6.62,3.54-3.18.77-2.91-1.49-2.79-3.61.47-8.76,1.64-17.54-1-26.2-.74-2.38,1.28-4.38,1.29-6.72q.06-11.22.22-22.44c0-2.48-1.25-3.19-3.5-2.81-1.71.29-4.35,2.16-4.15-1.59.15-2.79-2.12-7,2.49-8a170.7,170.7,0,0,1,18.76-2.48C213.33,403.09,213.46,403.65,213.43,409.33Z"/><path class="cls-12" d="M145.82,412.71c2.09-.45,1.93.72,1.9,2.28-.21,10.47-1.06,21-.2,31.41,1,12.05-1.36,24,0,36,.53,4.71-4.39,2.71-6.77,3.54-2.71.95-2.55-1.38-2.52-3.35.17-8.78.69-17.51-.67-26.34-.75-4.87,1.26-10.1,1-15.29-.4-8.13.56-16.31-.57-24.42-.24-1.75.38-2.45,1.95-2.72C141.92,413.51,143.86,413.09,145.82,412.71Z"/><path class="cls-8" d="M294.86,454.71c.07-6-1.31-12.21-.7-17.74,1.11-10,.29-19.91.88-29.83.1-1.83,0-3.67,0-5.5-.19-5,2.62-7.16,7.59-6.11,2.41.52,1.49,2.1,1.45,3.48-.35,12.27-1.13,24.48.62,36.79.73,5.16-1.43,10.76-1.11,16.27.25,4.31-.17,8.63.47,13,.72,4.94-3.34,2.89-5.46,3.19-1.89.27-4.49.92-3.85-3.05C295.29,461.76,294.86,458.2,294.86,454.71Z"/><path class="cls-3" d="M469.13,426.69a31,31,0,0,1-1.42,11.07c-1.55,4.32,2.17,8.29,1.41,12.66-.34,2,1,5.58-1.12,5.71-3.4.21-6.83,1.81-10.27.58-1.63-.58-1.32-2.15-1.33-3.42,0-4.65,0-9.3,0-14,0-2.19,0-3.65,3.17-3.39,3.54.28,5.39-2,5.18-5.72a48.17,48.17,0,0,1,0-6.47c.28-3.89-1.12-6.46-5.15-7.18-2-.35-3.78-.93-3-3.42s2.9-1.6,4.58-1.21C469.14,413.83,469.13,413.86,469.13,426.69Z"/><path class="cls-3" d="M133.29,424c1.1,17.17-2,34.3-.09,51.42C129.9,458.27,122.23,441.15,133.29,424Z"/><path class="cls-3" d="M669.15,479.76c-4.14-.73-7.7-1.38-11.26-2-1.61-.27-2.66-1.2-1.93-2.72,2-4.18.55-8.05-.47-12.09a42.86,42.86,0,0,1-.78-12.9C661,459.38,663.19,470.22,669.15,479.76Z"/><path class="cls-3" d="M309.11,420.78c6.58,6.14,6.42,16,13.44,22.77l-11.9,1.17c-1.26.13-2.23-.59-1.69-1.64,3.36-6.62-1.45-13-.37-19.53C308.74,422.64,308.2,421.58,309.11,420.78Z"/><path class="cls-3" d="M152.78,437.26c6.4,5.84,6.44,14.87,13.27,20.47-4.33,1-8,1.83-11.59,2.68-1.23.29-2.38-.35-1.87-1.39,3.31-6.7-1.49-13.26-.16-19.89C152.52,438.66,152.61,438.2,152.78,437.26Z"/><path class="cls-3" d="M213.75,441.72c-2.77-1.16-2.87-2.56-2.89-3.84-.07-5.62-.06-11.24-.08-16.86,0-1.84.44-3.42,2.71-3.25s1.74,2.13,1.66,3.44C214.78,427.88,214.26,434.54,213.75,441.72Z"/><path class="cls-3" d="M369.52,434.41c-3.39-5.45-2-10.2-2.25-14.71-.17-2.81,0-5.65.06-8.47,0-1.84,1.4-2,2.75-2.18s2.18.39,1.95,1.57C370.54,418,372.48,425.82,369.52,434.41Z"/><path class="cls-3" d="M368.6,464.66c-1.43-8.88-2.09-17.64.37-26.33C371.41,447.17,369.75,456,368.6,464.66Z"/><path class="cls-11" d="M654.61,442.5a15.5,15.5,0,0,1-.08-10A21.39,21.39,0,0,1,654.61,442.5Z"/><path class="cls-11" d="M98.61,436.58c-1.31-2.81-.94-5.7-.92-10C99.85,430.72,98.75,433.71,98.61,436.58Z"/><path class="cls-11" d="M247,405.37v12.68h-.31V405.38Z"/><path class="cls-11" d="M571,419.14v11h-.37v-11Z"/><path class="cls-13" d="M322.23,77.18c1.18-5.29,0-6.35-5.13-4.77a9.29,9.29,0,0,1-1.38.56c-1.23.17-2.64,1.5-3.64.1-.73-1,.37-2.16.91-3.16,2.59-4.82,5.89-9.29,7.59-14.57s1-6.33-5.49-7.89c6-4.72,11.2-9.2,16.78-13.19,7.18-5.14,15.21-8.87,23.09-12.82a19.25,19.25,0,0,1,14.48-1.16c8.56,2.39,16.6,5.59,23.21,12.37-2.33,1.8-4.07.42-5.81-.15-5.37-1.75-10.28-4.73-15.9-5.83-5-1-9.92-1.19-14.65,1.06-1.16.55-2.77,1-2.48,2.69.22,1.25,1.67,1.4,2.75,1.8,5.41,2,5.43,2,1.41,5.87-1.29,1.24-2.14,2.64-1.71,4.42.54,2.23,2.52,1.71,4.1,1.85,2.08.19,4.24-.79,6.74.56-1.57,2.86-4.65,3.71-6.77,5.6-.71.64-1.91,1.07-1.59,2.26s1.38,1.31,2.37,1.5a38.55,38.55,0,0,0,11.94.08c2.46-.31,5-.75,7.37.39,1.49.71,3.32,1.36,3.07,3.41-.21,1.73-1.93,2.25-3.37,2.51A103.66,103.66,0,0,0,369,63.28a88.94,88.94,0,0,0-16.48,7c-3.37-.12-6.47,1.11-9.65,1.91C336,73.89,329.29,76.28,322.23,77.18Z"/><path class="cls-1" d="M322.23,77.18c7.06-.9,13.75-3.29,20.61-5,3.18-.8,6.28-2,9.65-1.91-10.9,8.06-20.41,17.72-30.64,27.4-.55-3.62,2.5-5.35,2.12-8.39-2,.72-3.73,1.52-5.58,2-1.21.32-2.73,1.21-3.74-.07s0-2.54.74-3.64C317.64,84.1,320,80.65,322.23,77.18Z"/><path class="cls-1" d="M299.12,231.28a4.48,4.48,0,0,0,.67.47,43.78,43.78,0,0,0,9.68,9.39c6.25,6.19,13.37,11.32,20.23,16.78,6.2,4.94,13.1,9,18.27,15.21,2.17,2.6,5.14,3.33,8.5,3.23,1.43-.05,3.61-1.48,4.29,1.3-8.06,2.17-14.93,0-21.17-5.37C328,262.27,316,252.74,305.07,242a30.38,30.38,0,0,1-7-9.61Z"/><path class="cls-3" d="M263.08,300.74c-3.93-6.43-7.47-13-8.82-20.55,11.55-1.29,23.3-1.48,34.17-6.4,2-.89,4-1.59,6-2.38.06.33.12.66.19,1-5.29,3.42-10.53,6.93-16.3,9.54-1.43.65-3.5,1.43-2.77,3.5s2.9,2.1,4.71,1.59c3-.86,6-1.9,9-3,8.06-3,16.56-2.89,25.14-3.37-3.82,3.44-8.38,5.52-13,7.51-3.5,1.53-7.1,2.82-10.68,4.14-3.74,1.37-6.78,3.36-11.69,2.48C273.65,293.82,267.93,297.34,263.08,300.74Z"/><path class="cls-3" d="M365.1,304c-4.62,1.66-6.9,6.89-13.16,8.62l20.93-24.25a24.51,24.51,0,0,1,2.69-3c1.54-1.26,2.78-5,4.48-3.45,2,1.84,3.38,5.58,1.41,8.67-6.11,9.57-13,18.56-21.67,26l-.61-.51,6.19-11.85.3-.3c-.08-.07-.2-.24-.24-.22A1.15,1.15,0,0,0,365.1,304Z"/><path class="cls-11" d="M294.63,272.4c-.07-.33-.13-.66-.19-1a12.26,12.26,0,0,1,5.87-2.19l0,0C298.93,271.19,296.79,271.81,294.63,272.4Z"/><path class="cls-3" d="M359.78,316.6c-.34.34-.49,1.23-1.2.46-.07-.07.38-.63.59-1Z"/><path class="cls-11" d="M300.31,269.22l.65-.38c-.08.09-.14.21-.24.25a2,2,0,0,1-.44.09Z"/><path class="cls-3" d="M321.91,299.77l.83-.1c-.06.25-.13.5-.19.75C322.33,300.21,322.12,300,321.91,299.77Z"/><path class="cls-3" d="M254.33,280.26l-1-1.54Z"/><path class="cls-6" d="M344.43,172.36l-2.09-3.15c3.77-6.27,7.49-12.57,11.35-18.78.74-1.2,1.88-2.47,3.62-1.15-2.32,4-4.58,8.1-7,12.1-3.24,5.42-1,10.54,5.83,12.38a9.76,9.76,0,0,0-.87-1.85c-1.8-2.28-.93-4.36,1.08-5.47,2.32-1.28,3.61.8,4.56,2.6a48.27,48.27,0,0,1,1.81,4.5c1.9-3,1.5-8.25,6-7.14,4,1,1.73,4.74.6,7.61,7.45-3,9.09-7.4,5.4-13.27-2.11-3.37-4.65-6.53-5.39-10.59a50.33,50.33,0,0,1,13,20l-2.26,2.25-.87.8.11-.08-1.09,1.09.08-.08c-.36.36-.72.72-1.07,1.09l.08-.08c-.66.06-1.08.35-1.06,1.08l.06-.05c-3.31-.51-5.89.09-6.27,4.09-5.18-1.46-10.46-1.4-15.76-1.08-1.23-3.81-4.63-3.51-7.6-4a.41.41,0,0,1-.42-.43A2,2,0,0,0,344.43,172.36Z"/><path class="cls-3" d="M369.41,150.15c.74,4.06,3.28,7.22,5.39,10.59,3.69,5.87,2.05,10.28-5.4,13.27,1.13-2.87,3.42-6.62-.6-7.61-4.54-1.11-4.14,4.11-6,7.14A48.27,48.27,0,0,0,361,169c-.95-1.8-2.24-3.88-4.56-2.6-2,1.11-2.88,3.19-1.08,5.47a9.76,9.76,0,0,1,.87,1.85c-6.81-1.84-9.07-7-5.83-12.38,2.38-4,4.64-8.06,7-12.1,3.14,2.74,6.22,5.78,9.91.63C367.79,149.12,368.7,149.76,369.41,150.15Z"/><path class="cls-11" d="M356.36,132.22c2.44-6.17,9.23-9.56,10.52-16.47.16.18.34.36.51.53-.44,3.86-.4,7.53-5.08,9.72-2.15,1-2.93,5-4.33,7.59l-1.12.19-.12.09C356.61,133.32,356.49,132.77,356.36,132.22Z"/><path class="cls-11" d="M330.27,187.25c-.51-5.38,4.24-7.94,6.38-11.9l2.65-2.22a6.92,6.92,0,0,1,.64.61C336.68,178.22,335,183.84,330.27,187.25Z"/><path class="cls-11" d="M339.69,158.52c3-2.53,5.55-5.56,9.3-7.76,0,6.26-5.62,6-8.63,8.51Z"/><path class="cls-11" d="M380.75,156.94c-3.42-.41-5-2.45-5.37-6.15,2.93,1.18,4.51,3.23,6.14,5.21Z"/><path class="cls-3" d="M309.25,165.17l5.1-.06,1,.68-2,.56C312,165.82,310.28,166.75,309.25,165.17Z"/><path class="cls-6" d="M382.84,157.15a1.85,1.85,0,0,1,1.82,1.6l-.68.84c-.82-.39-1.59-.83-1.75-1.85A.9.9,0,0,0,382.84,157.15Z"/><path class="cls-11" d="M338.6,160.61l-2.26,1.62.07.1c-.19-1.42.85-1.78,1.86-2.17Z"/><path class="cls-11" d="M354.3,139.2l1.76-1.52-1.25,1.49A.44.44,0,0,1,354.3,139.2Z"/><path class="cls-6" d="M388.69,161.79c.46.24,1.23.33.76,1.08-.08.13-.95-.22-1.46-.35Z"/><path class="cls-11" d="M336.34,162.23l-1.16.66-.12-.46,1.35-.11Z"/><path class="cls-11" d="M338.27,160.16l1.42-1.64.67.75-1.76,1.34Z"/><path class="cls-6" d="M386,160.59l-2-1,.67-.84,2,1.13Z"/><path class="cls-3" d="M354.3,139.2a.44.44,0,0,0,.51,0c.37.63.69,1.25-.54,1.06a3.56,3.56,0,0,1-.29-.7C354,139.44,354.19,139.31,354.3,139.2Z"/><path class="cls-6" d="M387.66,160.83l1,1-.7.73-1.09-.93Z"/><path class="cls-6" d="M386.64,159.88l1,1-.76.76-.95-1Z"/><path class="cls-11" d="M382.23,157.74l-1.48-.8.77-.94,1.32,1.15A.9.9,0,0,1,382.23,157.74Z"/><path class="cls-11" d="M369.67,99.83c3.44,2.6-.37,4.94-.25,7.42.91,1.91-.39,6,4.22,4.26l.84.88c-2.91,3.24-5,3.5-5.84-1.51a27,27,0,0,0-1.63-4.56c.73-2,2.63-3.59,2.19-6C369.36,100.15,369.52,100,369.67,99.83Z"/><path class="cls-11" d="M346.33,131.2a2.46,2.46,0,0,1-1.51-2.41c1.44.38,1.93,1.13,1.4,2.48Z"/><path class="cls-7" d="M356.36,132.22c.13.55.25,1.1.38,1.65-.65,0-1.47.13-1.47-.81C355.27,132.78,356,132.5,356.36,132.22Z"/><path class="cls-7" d="M376.87,131.29c-.48.73-.95,1.46-1.42,2.19C375,132.13,375.36,131.35,376.87,131.29Z"/><path class="cls-11" d="M366.88,115.75c.38-.31.78-.56,1.16,0,0,0-.42.36-.65.55C367.22,116.11,367,115.93,366.88,115.75Z"/><path class="cls-11" d="M368.24,99.28c-3.1-2.3-6.8-4.12-7.17-8.65,1.84,3.37,5.77,4.88,7.48,8.34Z"/><path class="cls-9" d="M373.64,111.51c-4.61,1.75-3.31-2.35-4.22-4.26a10.68,10.68,0,0,1,5.15,3.16Z"/><path class="cls-11" d="M368.55,99l1.12.87-.47.46-1-1Z"/><path class="cls-11" d="M347.35,195.77c2.26-2.17,1.79-5,2-7.7A8,8,0,0,1,352,183l1,.93c-4.5,5.3.05,8.34,2.82,12.16,1.74-2.4,2.13-7.22,6.41-3.11,4.42-4.19,4.71,1.32,6.59,3,2-1.65,1.62-5,4.53-5.69l-.09-.07c-.07,2.44,2.5,2.92,3.44,4.61l-.64.73c-3.15,2-.73,5.22-1.76,7.68a1.41,1.41,0,0,1-.93-.05c-.39-2.2.42-4.65-1.53-6.76l-2.55,5.87c-1.38-1.14-.29-3.62-2.74-4.58a38.65,38.65,0,0,0-.31,6.18c.17,1.75,1.31.62,2.07.25l3.77.73c-.59,1.68-2.73,2.49-2.57,4.59-.36,1.37.39,2.92-.66,4.24-1.84-1.76-.15-6.28-3.87-6-3.5.24-1.33,3.71-2,5.7-1.48-.34-1.58-1.49-1.72-2.71s.39-3-1.56-3.08c-1.79-.1-2.53,1.24-2.84,2.86-.21,1.09-.54,2.16-.88,3.51-1.35-1.57-.55-3.13-.93-4.48.09-2.07-2.1-2.86-2.56-4.62l2.82-1c3.27,2.32,6.87,1.45,10.74,1.31-1.5-2.94.44-7.76-4.67-7.8-3.9,0-.52,4.46-2.78,5.84-1.16-1.7.46-3.87-1.17-5.83-.88,1.74-1.59,3.16-2.3,4.58-1.55-1.48-.82-4.1-2.78-5.63-1.32,2.26-.88,4.64-1.15,6.9a1.25,1.25,0,0,1-.93,0c-.08-1.81-.25-3.63-.2-5.44C350.2,195.56,349.13,195.23,347.35,195.77Z"/><path class="cls-11" d="M400.4,214.19c-.09,1-.17,2-.26,3l.13,0c-3.13-.09-5.93-2.38-9.59-.28-1.19.68-3,.79-3.76,2.4-1.47,3-2.93,2.59-4.54.12a16.62,16.62,0,0,0-1.71-1.87c-1.37,1.92-2.27,4.57-3.9,5.16-3.83,1.38-8.27,1.21-12.16,1.23-2.8,0-7.29,2.81-9.71-1.62-5.62,3.23-8.56-.21-10.78-4.58-2.21.87-2.24,4.21-4.69,3.59-1.55-.4-2.37-2.22-2.07-4.1l-.08.07c3.15,1.93,4.58-1.82,7-2.11,2.63-.31,2.09,5.93,6.13,3.12a4.79,4.79,0,0,0,.85.05c.28,1.11.38,2.58,2.11,1.67.87-.46,1.43-1.29,2.39-.06,2.78,3.53,4.9,2.23,6.8-2.08,1.2,4.48,3.1,5.19,6,2.51,1.7-1.57,4.18.09,6.26-1.33,1.09-.74,2.74-1,3.49-2.27,1.15-2,2.69-1.89,4-.6,4.41,4.41,4.56-.15,4.84-2.52.5-4.19,2-1.05,3.13-.67,4.19,2.29,7.56,1.47,9.48-2.64C400,211.83,400.21,213,400.4,214.19Z"/><path class="cls-11" d="M335.33,203.64c1.5.34,3.23,2.12,4.21-.69,2.5,3.26,3.93,1.69,4.48-1.23s-.13-5.62-.89-8.37c.22-.19.43-.37.66-.55,1.24.91.71,4.08,3.63,2.85.3,3-3.86,5.34-1.2,8.64,0,.64.07,1.29.1,1.93-.87.06-.69,2.32-2,1.12-2.16-1.92-4.56-1.17-6.95-1C335.38,206.4,334.67,205.51,335.33,203.64Z"/><path class="cls-11" d="M323.86,217.11l.16,0-.12-2q.28-2.82.55-5.64c2,.95.49,5.07,3.44,4.58s7.57,1.4,8.51-3.91c-.09,1.86-.25,3.74.62,5.5a4.38,4.38,0,0,0-.7.52C332.23,217.33,327.87,215,323.86,217.11Z"/><path class="cls-6" d="M346.32,206.22c0-.64-.07-1.29-.1-1.93,1.45,0,3,.34,4.1-1.09a1.25,1.25,0,0,0,.93,0l1.29,1.66c.46,1.76,2.65,2.55,2.56,4.62-.29,1.41-.59,2.83-.89,4.25C354.22,208.41,349.24,208.4,346.32,206.22Z"/><path class="cls-6" d="M373.37,203.14a1.41,1.41,0,0,0,.93.05,2.92,2.92,0,0,0,2.23,2.83.85.85,0,0,1,.84.32c-2.34,2.39-7.4,2.37-6.83,7.57l-1-4.49c-.16-2.1,2-2.91,2.57-4.59Z"/><path class="cls-10" d="M351.27,218.3a4.79,4.79,0,0,1-.85-.05c-.79-.8-1.77-1.56-1.35-2.87a1.22,1.22,0,0,1,1.09-.52C351.59,215.62,351.19,217.05,351.27,218.3Z"/><path class="cls-11" d="M337,215.67c.08.52.17,1.05.26,1.57l.08-.07-1-1A4.38,4.38,0,0,1,337,215.67Z"/><path class="cls-7" d="M336.32,216.19l1,1c-.3,1.88.52,3.7,2.07,4.1,2.45.62,2.48-2.72,4.69-3.59,2.22,4.37,5.16,7.81,10.78,4.58,2.42,4.43,6.91,1.63,9.71,1.62,3.89,0,8.33.15,12.16-1.23,1.63-.59,2.53-3.24,3.9-5.16a16.62,16.62,0,0,1,1.71,1.87c1.61,2.47,3.07,2.93,4.54-.12.79-1.61,2.57-1.72,3.76-2.4,3.66-2.1,6.46.19,9.59.28-5,13.52-17.57,22.76-30.2,22.1-1.28-.06-2.71.22-3.65-1.12.29-2.34,3.67-1.57,4-4.24-1.81-1.09-3.68-.29-5.57,0-6.57,1-12.89,3.27-19.61,3.51a9.51,9.51,0,0,1-8.6-3.8C333,229,328.74,225,324.75,220.79c-.3-1.23-.59-2.45-.89-3.68C327.87,215,332.23,217.33,336.32,216.19Z"/><path class="cls-3" d="M313.53,365.71c0,3,0,6,0,9,0,1.19-.1,2.44-1.83,2.28-1.36-.13-1.39-1.23-1.39-2.21,0-6,0-12,0-18,0-1.23.22-2.45,1.85-2.32,1.35.1,1.36,1.28,1.37,2.24C313.56,359.73,313.53,362.72,313.53,365.71Z"/><path class="cls-11" d="M415.3,366.19c0,2.82,0,5.64,0,8.46,0,1.15.06,2.4-1.66,2.47s-2-.95-2-2.23q0-9,0-17.93c0-1.17.11-2.5,1.69-2.53,1.87,0,2,1.4,2,2.8Q415.31,361.7,415.3,366.19Z"/><path class="cls-8" d="M460.43,262.14c.23,2.73-.66,4.05-4,3.05-3.15-.94-6.56-1-9.69-2-5.76-1.83-7.2-5-5.2-10.68,1.15-3.21,3.15-4.42,5.91-1.75a25.12,25.12,0,0,0,10.5,6.37C460.53,257.88,460.45,259.84,460.43,262.14Z"/><path class="cls-11" d="M370.1,180.31c.38-4,3-4.6,6.27-4.09-1.4,2.23-7,2.06-3.91,6.85l-.81.79A4.63,4.63,0,0,1,370.1,180.31Z"/><path class="cls-11" d="M372.46,183.07c1.53,1.29,2.08,3.15,2.7,4.94s-.34,2.26-1.9,2.16l.09.07c.6-2.44-.73-4.36-1.7-6.38Z"/><path class="cls-11" d="M376.31,176.27c0-.73.4-1,1.06-1.08Z"/><path class="cls-11" d="M377.29,175.27c.35-.37.71-.73,1.07-1.09C378,174.54,377.64,174.9,377.29,175.27Z"/><path class="cls-11" d="M379.26,173.25l.87-.8Z"/><path class="cls-11" d="M378.28,174.26l1.09-1.09Z"/><path class="cls-11" d="M376.7,194.78c.19.49.38,1,.56,1.47l.08-.09-1.28-.65Z"/><path class="cls-10" d="M350.32,203.2c-1.09,1.43-2.65,1-4.1,1.09-2.66-3.3,1.5-5.66,1.2-8.64l-.07.12c1.78-.54,2.85-.21,2.77,2C350.07,199.57,350.24,201.39,350.32,203.2Z"/><path class="cls-11" d="M346.74,175.21c3,.51,6.37.21,7.6,4-.11,1.65.15,3.4-1.34,4.65l-1-.93c1.21-2.33,1.48-4.19-1.77-5.16C348.94,177.39,347.9,176.09,346.74,175.21Z"/><path class="cls-11" d="M344.43,172.36a2,2,0,0,1,1.89,2.42Z"/><path class="cls-8" d="M538.9,314.79c-3.55,1.2-6.91.4-10.21-1,1.06-9.42,6.28-16.17,13.85-21.33a6.75,6.75,0,0,1,5.26-1.07c2.22.48,5.08.43,6,2.85s-1.71,3.7-3.15,5.15A66.29,66.29,0,0,0,538.9,314.79Z"/><path class="cls-3" d="M398.33,195.38c-1-1.51-.26-2.44,1.06-3.19C401.28,194,398.86,194.38,398.33,195.38Z"/><path class="cls-10" d="M385.24,199c0,1.48,0,3,0,4.45-1,.85-1.93,1.93-3.39.71-2.22-1.85-1.19-4.33-1.17-6.53a7,7,0,0,1,2.51-5.72c.79-.61,1.57,0,2.25.43a1.83,1.83,0,0,1,.71,2.56C385.51,196.22,383.16,197.18,385.24,199Z"/><path class="cls-10" d="M376.06,195.51l1.28.65c.39,3.34,4.42,7-.8,9.86a2.92,2.92,0,0,1-2.24-2.83C375.33,200.73,372.91,197.48,376.06,195.51Z"/><path class="cls-10" d="M343.13,193.35c.76,2.75,1.41,5.58.89,8.37s-2,4.49-4.48,1.23l-.15-3.95c1.56-.95.59-1.92,0-2.89s-2-2-.47-3.4C340.65,191.11,341.9,192.09,343.13,193.35Z"/><path class="cls-10" d="M323.3,201.21c.4-1.55,1.54-2,3-2l0,0v.93c-.05.38-.11.77-.16,1.16Z"/><path class="cls-1" d="M326.31,200.15v-.93a4.67,4.67,0,0,1,.18.64C326.5,199.94,326.37,200.05,326.31,200.15Z"/><path class="cls-4" d="M515.76,419.93c1.27-2.26-1.62-6.05,2.87-6.46,3.74-.34,4.23,2.3,4,5.25s.52,7.16-3.65,7.44C514.12,426.47,517.18,421.88,515.76,419.93Z"/><path class="cls-4" d="M232.92,417.62c-1,2.33,1,6.19-2,6.16-3.48,0-1.67-3.9-1.69-6s-1.11-6,1.58-5.95C234.46,411.88,231.32,416,232.92,417.62Z"/><path class="cls-4" d="M489.47,436.9c0,7.5,0,15,0,22.49,0,1.8.25,3.9-2.63,3.74-2.36-.13-4.21-.67-4.2-3.69.05-15.33,0-30.65,0-46,0-1.8.22-3.35,2.67-3.2s4.21.61,4.17,3.66C489.4,421.58,489.46,429.24,489.47,436.9Z"/><path class="cls-4" d="M640.71,444.78c.13,1.15.32,2.53-1.33,2.65s-2.67-.62-2.6-2.3c.12-3,.38-6,.61-9,.07-.88.4-1.73,1.44-1.63a1.69,1.69,0,0,1,1.44,1.77C640.44,439.13,640.56,442,640.71,444.78Z"/><path class="cls-4" d="M80.48,443.66c1.84-2.48-1.36-7.8,2.5-8.12,2.58-.22.42,5.12,1.56,7.74a2.81,2.81,0,0,1,.14,1c.12,1.72.13,3.66-2.13,3.69C79.48,448,81,445.36,80.48,443.66Z"/><path class="cls-4" d="M556.71,426c-1.11,1.79,1.44,5.55-1.83,5.59-3.65,0-2.14-3.82-2-5.94.17-2.29-1.51-6.58,1.91-6.46C558,419.29,555.76,423.6,556.71,426Z"/><path class="cls-4" d="M389.72,411.43c-.8,2.05,1.61,5.91-2,6s-2-3.89-1.94-5.95c.06-2.25-1.66-6.42,2-6.41C390.63,405.08,388.82,409.23,389.72,411.43Z"/><path class="cls-4" d="M49.54,449.08c.23-3.31-1.22-7.3,4.13-7.54,1.28-.06,2.4,0,2.55,1.55.38,4,.36,8-2.42,11.33a2.38,2.38,0,0,1-3.19.51C48.69,453.3,50,450.89,49.54,449.08Z"/><path class="cls-5" d="M365.1,304a1.15,1.15,0,0,1,.32-.27s.16.15.24.22l-.3.3Z"/><path class="cls-7" d="M353,183.88c1.49-1.25,1.23-3,1.34-4.65,5.3-.32,10.58-.38,15.76,1.08a4.63,4.63,0,0,0,1.55,3.55c1,2,2.3,3.94,1.7,6.38-2.91.7-2.52,4-4.53,5.69-1.88-1.68-2.17-7.19-6.59-3-4.28-4.11-4.67.71-6.41,3.11C353.05,192.22,348.5,189.18,353,183.88Z"/><path class="cls-10" d="M355.18,201.88c.71-1.42,1.42-2.84,2.3-4.58,1.63,2,0,4.13,1.17,5.83,2.26-1.38-1.12-5.88,2.78-5.84,5.11,0,3.17,4.86,4.67,7.8-3.87.14-7.47,1-10.74-1.31Z"/><path class="cls-8" d="M355.18,201.88l.18,1.9-2.82,1-1.29-1.66c.27-2.26-.17-4.64,1.15-6.9C354.36,197.78,353.63,200.4,355.18,201.88Z"/><path class="cls-8" d="M373.37,203.14l-1.29,1.69-3.77-.73c.33-.62.66-1.23,1-1.85l2.55-5.87C373.79,198.49,373,200.94,373.37,203.14Z"/><path class="cls-10" d="M369.29,202.25l-1,1.85c-.76.37-1.9,1.5-2.07-.25a38.65,38.65,0,0,1,.31-6.18C369,198.63,367.91,201.11,369.29,202.25Z"/></g></g></svg>